M48
METRIC,LZ,000.000
;FILE_FORMAT=3:3
;TYPE=PLATED
;Layer: Drill PTH
;EasyEDA v6.4.19.5, 2021-05-01T16:54:04+01:00
;546d7772027e45709b81d84d5bd5c9e2,16c567bfc68a422cbc3e568a0f495cef,10
;Gerber Generator version 0.2
;Holesize 1 = 0.310 mm
T01C0.310
;Holesize 2 = 0.800 mm
T02C0.800
;Holesize 3 = 0.901 mm
T03C0.901
;Holesize 4 = 0.961 mm
T04C0.961
;Holesize 5 = 1.000 mm
T05C1.000
;Holesize 6 = 1.001 mm
T06C1.001
;Holesize 7 = 1.101 mm
T07C1.101
;Holesize 8 = 1.301 mm
T08C1.301
;Holesize 9 = 1.501 mm
T09C1.501
;Holesize 10 = 1.601 mm
T10C1.601
;Holesize 11 = 1.875 mm
T11C1.875
;Holesize 12 = 2.000 mm
T12C2.000
%
G05
G90
T01
X052179Y103375
X056612Y109588
X043802Y097676
X019461Y084917
X037960Y093243
T02
X051853Y054737G85X051859Y054737
X056855Y054737G85X056860Y054737
X063624Y054737G85X063630Y054737
X071244Y054737G85X071250Y054737
X058296Y057785G85X058290Y057785
X050676Y057785G85X050670Y057785
X025400Y082934G85X025400Y082928
X025400Y075314G85X025400Y075308
X052070Y072935G85X052070Y072941
X052070Y077937G85X052070Y077942
X071247Y070869G85X071247Y070863
X071247Y063249G85X071247Y063243
X063624Y057912G85X063630Y057912
X071244Y057912G85X071250Y057912
X063627Y063243G85X063627Y063249
X063627Y070863G85X063627Y070869
X048514Y059433G85X048514Y059439
X048514Y067053G85X048514Y067059
X057785Y068597G85X057785Y068602
X057785Y071097G85X057785Y071102
X032495Y050800G85X032490Y050800
X029995Y050800G85X029990Y050800
X046482Y048785G85X046482Y048790
X046482Y051285G85X046482Y051290
X046355Y079251G85X046355Y079245
X046355Y071631G85X046355Y071625
X051853Y061087G85X051859Y061087
X056855Y061087G85X056860Y061087
X021704Y082934G85X021704Y082928
X021704Y075314G85X021704Y075308
X025437Y071628G85X025443Y071628
X030439Y071628G85X030444Y071628
X021717Y071631G85X021717Y071625
X021717Y064011G85X021717Y064005
X024127Y060960G85X024133Y060960
X031747Y060960G85X031753Y060960
X030697Y057531G85X030691Y057531
X025695Y057531G85X025690Y057531
X030570Y064008G85X030564Y064008
X025568Y064008G85X025563Y064008
X010287Y063348G85X010287Y063343
X010287Y059847G85X010287Y059842
X020828Y050317G85X020828Y050322
X020828Y053818G85X020828Y053823
X057785Y082575G85X057785Y082580
X057785Y086076G85X057785Y086081
X067818Y100305G85X067818Y100300
X067818Y096804G85X067818Y096799
X036740Y068961G85X036746Y068961
X041742Y068961G85X041747Y068961
X058076Y091821G85X058082Y091821
X063078Y091821G85X063083Y091821
X051816Y068543G85X051816Y068537
X051816Y063541G85X051816Y063536
X063624Y051562G85X063630Y051562
X071244Y051562G85X071250Y051562
X068075Y107569G85X068069Y107569
X060455Y115189G85X060449Y115189
X068075Y110109G85X068069Y110109
X060455Y112649G85X060449Y112649
X068075Y112649G85X068069Y112649
X060455Y110109G85X060449Y110109
X068075Y115189G85X068069Y115189
X060455Y107569G85X060449Y107569
X036065Y064262G85X036071Y064262
X043685Y056642G85X043691Y056642
X036065Y061722G85X036071Y061722
X043685Y059182G85X043691Y059182
X036065Y059182G85X036071Y059182
X043685Y061722G85X043691Y061722
X036065Y056642G85X036071Y056642
X043685Y064262G85X043691Y064262
X053337Y097917G85X053343Y097917
X060957Y097917G85X060963Y097917
X053337Y102235G85X053343Y102235
X060957Y102235G85X060963Y102235
T03
X038100Y075819G85X038100Y075819
X040640Y075819G85X040640Y075819
X013970Y090805
X011430Y090805
X016510Y090805
X019050Y090805
T04
X041402Y083796
X038862Y083796
X036322Y083796
T05
X029972Y083566
X029972Y086106
X029972Y088646
X029972Y091186
X029972Y093726
X029972Y096266
X029972Y098806
X029972Y101346
X029972Y103886
X029972Y106426
X029972Y108966
X029972Y111506
X029972Y114046
X029972Y116586
X029972Y119126
X029972Y121666
X029972Y124206
X029972Y126746
X029972Y129286
X029972Y131826
X047752Y131826
X047752Y129286
X047752Y126746
X047752Y124206
X047752Y121666
X047752Y119126
X047752Y116586
X047752Y114046
X047752Y111506
X047752Y108966
X047752Y106426
X047752Y103886
X047752Y101346
X047752Y098806
X047752Y096266
X047752Y093726
X047752Y091186
X047862Y088646
X047752Y086106
X047752Y083566
T06
X057528Y049149G85X057534Y049149
X061465Y075819G85X061471Y075819
X009649Y051689G85X009655Y051689
X053591Y091821G85X053597Y091821
T07
X016771Y073065
X016774Y075567
X016771Y078066
X009372Y070315G85X009372Y071015
X009271Y080115G85X009271Y080815
T08
X072223Y086661G85X072223Y086661
X067222Y081662G85X067224Y081662
X072223Y076661G85X072223Y076661
T09
X015260Y126730G85X015260Y124730
X010160Y126730G85X010160Y124730
X066695Y126730G85X066695Y124730
X061595Y126730G85X061595Y124730
T10
X063690Y043810G85X063690Y043810
X057340Y027310G85X057340Y027310
X070040Y043810G85X070040Y043810
X057340Y043810G85X057340Y043810
X070040Y027310G85X070040Y027310
X063690Y027310G85X063690Y027310
X015050Y027310G85X015050Y027310
X021400Y043810G85X021400Y043810
X008700Y027310G85X008700Y027310
X021400Y027310G85X021400Y027310
X008700Y043810G85X008700Y043810
X015050Y043810G85X015050Y043810
T11
X015113Y102794
X015113Y107569
X015113Y112344
T12
X044834Y040640G85X044828Y040640
X039754Y040640G85X039748Y040640
X044834Y035560G85X044828Y035560
X039754Y035560G85X039748Y035560
X044834Y030480G85X044828Y030480
X039754Y030480G85X039748Y030480
X034674Y030480G85X034668Y030480
X034674Y035560G85X034668Y035560
X034674Y040640G85X034668Y040640
M30
