G04 Layer: TopLayer*
G04 EasyEDA v6.4.19.5, 2021-05-01T16:54:04+01:00*
G04 546d7772027e45709b81d84d5bd5c9e2,16c567bfc68a422cbc3e568a0f495cef,10*
G04 Gerber Generator version 0.2*
G04 Scale: 100 percent, Rotated: No, Reflected: No *
G04 Dimensions in millimeters *
G04 leading zeros omitted , absolute positions ,4 integer and 5 decimal *
%FSLAX45Y45*%
%MOMM*%

%ADD11C,0.5000*%
%ADD12C,2.0000*%
%ADD13C,1.0000*%
%ADD14C,0.6100*%
%ADD15C,2.4999*%
%ADD16C,1.6000*%
%ADD17R,1.8000X1.8000*%
%ADD18C,1.8000*%
%ADD19R,1.6000X1.6000*%
%ADD20C,3.0000*%
%ADD21C,2.4994*%
%ADD22R,2.4000X1.6000*%
%ADD23C,1.9000*%
%ADD24C,3.0455*%
%ADD25C,2.3400*%
%ADD26R,1.5000X2.2000*%
%ADD27C,1.5999*%
%ADD28C,2.2000*%

%LPD*%
D11*
X5217922Y10337545D02*
G01*
X5217922Y10515600D01*
X5661152Y10958829D01*
X4775200Y9372600D02*
G01*
X5134102Y9731502D01*
X5134102Y10607802D01*
X6045200Y11518900D01*
X6045200Y11010900D02*
G01*
X5583681Y10549128D01*
X5583681Y9775189D01*
X4927091Y9118600D01*
X4775200Y9118600D01*
X4635500Y7162800D02*
G01*
X4483100Y7162800D01*
X4064000Y7581900D01*
X5908547Y6860031D02*
G01*
X5908547Y6778752D01*
X6362700Y6324600D01*
X5778500Y6860031D02*
G01*
X5908547Y6860031D01*
X7222236Y8665971D02*
G01*
X7222236Y7946136D01*
X6362700Y7086600D01*
X4635500Y7924800D02*
G01*
X4380229Y8180070D01*
X4380229Y9767570D01*
X6045200Y11264900D02*
G01*
X6045200Y11241531D01*
X5513324Y10709402D01*
X5513324Y9798558D01*
X4960365Y9245600D01*
X4654550Y9245600D01*
X4567174Y9158224D01*
X4567174Y8564626D01*
X4775200Y8356600D01*
X2997200Y11912600D02*
G01*
X1768855Y10684002D01*
X1768855Y9198102D01*
X1651000Y9080500D01*
X2997200Y11658600D02*
G01*
X3190747Y11465052D01*
X3190747Y10082529D01*
X3116072Y10007600D01*
X2832100Y10007600D01*
X1905000Y9080500D01*
D12*
X1526031Y12573000D02*
G01*
X1526031Y11249152D01*
X1511300Y11234420D01*
X4775200Y12674600D02*
G01*
X5805931Y12674600D01*
X6046470Y12915137D01*
X6327393Y12915137D01*
X6669531Y12573000D01*
X1511300Y11234420D02*
G01*
X1143000Y10866120D01*
X1143000Y9080500D01*
X1143000Y9080500D02*
G01*
X1143000Y7625587D01*
X1462023Y7306563D01*
X1677162Y7306563D02*
G01*
X1462023Y7306563D01*
X3606800Y5664200D02*
G01*
X3975100Y5295900D01*
X3975100Y4064000D01*
X6669531Y12573000D02*
G01*
X6669531Y11656568D01*
X6807200Y11518900D01*
X6807200Y11518900D02*
G01*
X6807200Y11264900D01*
X6807200Y11264900D02*
G01*
X6870700Y11264900D01*
X7043420Y11092179D01*
X7043420Y9941813D01*
X6781800Y9680194D01*
X7124700Y5156200D02*
G01*
X7124700Y4501642D01*
X7004050Y4380992D01*
X4174236Y6896100D02*
G01*
X3810000Y7260336D01*
X3810000Y7581900D01*
X5778500Y8607805D02*
G01*
X5733541Y8607805D01*
X5207000Y8081263D01*
X5207000Y7793736D01*
X7124700Y5791200D02*
G01*
X7326884Y5589015D01*
X7326884Y5358384D01*
X7124700Y5156200D01*
X5778500Y7109968D02*
G01*
X5576824Y7109968D01*
X5207000Y7793736D02*
G01*
X5576824Y7423912D01*
X5576824Y7109968D01*
X5576824Y7109968D02*
G01*
X5576824Y6217412D01*
X5685536Y6108700D01*
X869950Y2731007D02*
G01*
X1118107Y2978912D01*
X1118107Y5015992D01*
X965200Y5168900D01*
X1028700Y5984494D02*
G01*
X965200Y5920994D01*
X965200Y5168900D01*
D13*
X3467100Y4064000D02*
G01*
X3758945Y3772154D01*
X3758945Y3463036D01*
X3885691Y3336289D01*
X4573524Y3336289D01*
X5185663Y3948429D01*
X5185663Y5473700D01*
D11*
X5829300Y5778500D02*
G01*
X5829300Y5617463D01*
X5685536Y5473700D01*
D13*
X7124700Y6324600D02*
G01*
X6958584Y6158484D01*
X6958584Y5639815D01*
X7124700Y5473700D01*
D11*
X2171700Y7162800D02*
G01*
X2170429Y7164070D01*
X2170429Y7531100D01*
X2544063Y7162800D02*
G01*
X2540000Y7166863D01*
X2540000Y7531100D01*
X5181600Y6853936D02*
G01*
X5181600Y7268463D01*
X5207000Y7293863D01*
X5207000Y7293863D02*
G01*
X5064759Y7435850D01*
X5064759Y9123679D01*
X5958586Y10017252D01*
X6067552Y10017252D01*
X6643370Y10593070D01*
X6643370Y10863579D01*
X6790690Y11010900D01*
X6807200Y11010900D01*
D13*
X6096000Y9791700D02*
G01*
X6096000Y8690355D01*
X5818631Y8412987D01*
X5778500Y8412987D01*
X5778500Y8257794D02*
G01*
X5778500Y8335263D01*
X5778500Y8335263D02*
G01*
X5778500Y8412987D01*
X5778500Y8335263D02*
G01*
X6146800Y7966963D01*
X6146800Y7581900D01*
X6146800Y7581900D02*
G01*
X6146800Y7094473D01*
X6306820Y6934454D01*
X6972554Y6934454D01*
X7124700Y7086600D01*
D11*
X3606800Y6172200D02*
G01*
X3606800Y6426200D01*
X3606800Y6172200D02*
G01*
X3249168Y5814568D01*
X3249168Y5080000D01*
X2170429Y8293100D02*
G01*
X2874518Y8997187D01*
X3367531Y8997187D01*
X4758690Y10388600D01*
X4775200Y10388600D01*
X2413000Y6096000D02*
G01*
X2556763Y6239763D01*
X2556763Y6400800D01*
X3069336Y5753100D02*
G01*
X3175000Y5858763D01*
X3175000Y6096000D01*
D13*
X1677162Y7806689D02*
G01*
X1677162Y8800337D01*
X1397000Y9080500D01*
X6096000Y10223500D02*
G01*
X6045200Y10274300D01*
X6045200Y10756900D01*
X5359400Y9182100D02*
G01*
X5807963Y9182100D01*
D11*
X1677415Y7556754D02*
G01*
X1946147Y7825486D01*
X1946147Y8491728D01*
X2997200Y9626600D02*
G01*
X4394200Y11023600D01*
X4897120Y11023600D01*
X6159500Y12285979D01*
X6159500Y12573000D01*
X3796029Y9324339D02*
G01*
X3765041Y9293352D01*
X3765041Y8024368D01*
X3664204Y7923784D01*
X3664204Y7175245D01*
X4166361Y6673087D01*
X4166361Y3747262D01*
X3975100Y3556000D01*
D15*
G01*
X6368999Y4380992D03*
G01*
X5733999Y2731007D03*
G01*
X7003999Y4380992D03*
G01*
X5733999Y4380992D03*
G01*
X7003999Y2731007D03*
G01*
X6368999Y2731007D03*
G01*
X1505000Y2731007D03*
G01*
X2140000Y4380992D03*
G01*
X870000Y2731007D03*
G01*
X2140000Y2731007D03*
G01*
X870000Y4380992D03*
G01*
X1505000Y4380992D03*
D16*
G01*
X5185613Y5473700D03*
G01*
X5685612Y5473700D03*
G01*
X6362700Y5473700D03*
G01*
X7124700Y5473700D03*
G01*
X5829300Y5778500D03*
G01*
X5067300Y5778500D03*
G01*
X2540000Y8293100D03*
G01*
X2540000Y7531100D03*
G01*
X5207000Y7293787D03*
G01*
X5207000Y7793786D03*
G01*
X7124700Y7086600D03*
G01*
X7124700Y6324600D03*
G01*
X6362700Y5791200D03*
G01*
X7124700Y5791200D03*
G36*
X3720000Y7671899D02*
G01*
X3899999Y7671899D01*
X3899999Y7491900D01*
X3720000Y7491900D01*
G37*
D18*
G01*
X4064000Y7581900D03*
D16*
G01*
X6362700Y6324600D03*
G01*
X6362700Y7086600D03*
G01*
X4851400Y5943600D03*
G01*
X4851400Y6705600D03*
D19*
G01*
X5778500Y6859981D03*
D16*
G01*
X5778500Y7109993D03*
D19*
G01*
X3249218Y5080000D03*
D16*
G01*
X2999181Y5080000D03*
D20*
G01*
X4483100Y4064000D03*
G01*
X3975100Y4064000D03*
G01*
X4483100Y3556000D03*
G01*
X3975100Y3556000D03*
G01*
X4483100Y3048000D03*
G01*
X3975100Y3048000D03*
G01*
X3467100Y3048000D03*
G01*
X3467100Y3556000D03*
G01*
X3467100Y4064000D03*
D19*
G01*
X4648200Y4878781D03*
D16*
G01*
X4648200Y5128793D03*
G01*
X4635500Y7924800D03*
G01*
X4635500Y7162800D03*
G01*
X5185613Y6108700D03*
G01*
X5685612Y6108700D03*
D21*
G01*
X5753100Y4914900D03*
G01*
X6146800Y7581900D03*
G01*
X965200Y5168900D03*
D16*
G01*
X2170353Y8293100D03*
G01*
X2170353Y7531100D03*
G01*
X2544013Y7162800D03*
G01*
X3043986Y7162800D03*
G01*
X2171700Y7162800D03*
G01*
X2171700Y6400800D03*
G01*
X2413000Y6096000D03*
G01*
X3175000Y6096000D03*
G01*
X3069386Y5753100D03*
G01*
X2569413Y5753100D03*
G01*
X3056686Y6400800D03*
G01*
X2556713Y6400800D03*
D19*
G01*
X1028700Y6334505D03*
D16*
G01*
X1028700Y5984494D03*
D19*
G01*
X2082800Y5031994D03*
D16*
G01*
X2082800Y5382005D03*
D19*
G01*
X5778500Y8257794D03*
D16*
G01*
X5778500Y8607805D03*
D19*
G01*
X6781800Y10030205D03*
D16*
G01*
X6781800Y9680194D03*
G01*
X3674313Y6896100D03*
G01*
X4174286Y6896100D03*
G01*
X5807913Y9182100D03*
G01*
X6307886Y9182100D03*
G01*
X5181600Y6854012D03*
G01*
X5181600Y6354013D03*
G01*
X6362700Y5156200D03*
G01*
X7124700Y5156200D03*
D21*
G01*
X5359400Y9182100D03*
D22*
G01*
X6807200Y10756900D03*
G36*
X3486800Y6506199D02*
G01*
X3726799Y6506199D01*
X3726799Y6346200D01*
X3486800Y6346200D01*
G37*
D23*
G01*
X1397000Y9080500D03*
G01*
X1143000Y9080500D03*
G01*
X1651000Y9080500D03*
G01*
X1905000Y9080500D03*
D24*
G01*
X1511300Y10279379D03*
G01*
X1511300Y10756900D03*
G01*
X1511300Y11234420D03*
D25*
G01*
X7222286Y8666099D03*
G01*
X6722287Y8166100D03*
G01*
X7222286Y7666101D03*
D17*
G01*
X1677111Y7306513D03*
D18*
G01*
X1677365Y7556677D03*
G01*
X1677111Y7806613D03*
D26*
G01*
X937260Y7066508D03*
G01*
X927100Y8046491D03*
D16*
G01*
X5334000Y9791700D03*
G01*
X6096000Y9791700D03*
G01*
X5334000Y10223500D03*
G01*
X6096000Y10223500D03*
D14*
G01*
X5217922Y10337545D03*
G01*
X5661152Y10958829D03*
G01*
X4380229Y9767570D03*
G01*
X1946147Y8491728D03*
G01*
X3796029Y9324339D03*
D16*
X6085199Y11518900D02*
G01*
X6005200Y11518900D01*
X6847199Y11010900D02*
G01*
X6767200Y11010900D01*
X6085199Y11264900D02*
G01*
X6005200Y11264900D01*
X6847199Y11264900D02*
G01*
X6767200Y11264900D01*
X6085199Y11010900D02*
G01*
X6005200Y11010900D01*
X6847199Y11518900D02*
G01*
X6767200Y11518900D01*
X6085199Y10756900D02*
G01*
X6005200Y10756900D01*
X4328800Y5664200D02*
G01*
X4408799Y5664200D01*
X3566800Y6172200D02*
G01*
X3646799Y6172200D01*
X4328800Y5918200D02*
G01*
X4408799Y5918200D01*
X3566800Y5918200D02*
G01*
X3646799Y5918200D01*
X4328800Y6172200D02*
G01*
X4408799Y6172200D01*
X3566800Y5664200D02*
G01*
X3646799Y5664200D01*
X4328800Y6426200D02*
G01*
X4408799Y6426200D01*
X4140200Y8309561D02*
G01*
X4140200Y8449561D01*
D27*
X3886200Y8309610D02*
G01*
X3886200Y8449563D01*
D16*
X3632200Y8309561D02*
G01*
X3632200Y8449561D01*
D27*
X2927197Y8356600D02*
G01*
X3067202Y8356600D01*
X2927197Y8610600D02*
G01*
X3067202Y8610600D01*
X2927197Y8864600D02*
G01*
X3067202Y8864600D01*
X2927197Y9118600D02*
G01*
X3067202Y9118600D01*
X2927197Y9372600D02*
G01*
X3067202Y9372600D01*
X2927197Y9626600D02*
G01*
X3067202Y9626600D01*
X2927197Y9880600D02*
G01*
X3067202Y9880600D01*
X2927197Y10134600D02*
G01*
X3067202Y10134600D01*
X2927197Y10388600D02*
G01*
X3067202Y10388600D01*
X2927197Y10642600D02*
G01*
X3067202Y10642600D01*
X2927197Y10896600D02*
G01*
X3067202Y10896600D01*
X2927197Y11150600D02*
G01*
X3067202Y11150600D01*
X2927197Y11404600D02*
G01*
X3067202Y11404600D01*
X2927197Y11658600D02*
G01*
X3067202Y11658600D01*
X2927197Y11912600D02*
G01*
X3067202Y11912600D01*
X2927197Y12166600D02*
G01*
X3067202Y12166600D01*
X2927197Y12420600D02*
G01*
X3067202Y12420600D01*
X2927197Y12674600D02*
G01*
X3067202Y12674600D01*
X2927197Y12928600D02*
G01*
X3067202Y12928600D01*
X2927197Y13182600D02*
G01*
X3067202Y13182600D01*
X4845202Y13182600D02*
G01*
X4705197Y13182600D01*
X4845202Y12928600D02*
G01*
X4705197Y12928600D01*
X4845202Y12674600D02*
G01*
X4705197Y12674600D01*
X4845202Y12420600D02*
G01*
X4705197Y12420600D01*
X4845202Y12166600D02*
G01*
X4705197Y12166600D01*
X4845202Y11912600D02*
G01*
X4705197Y11912600D01*
X4845202Y11658600D02*
G01*
X4705197Y11658600D01*
X4845202Y11404600D02*
G01*
X4705197Y11404600D01*
X4845202Y11150600D02*
G01*
X4705197Y11150600D01*
X4845202Y10896600D02*
G01*
X4705197Y10896600D01*
X4845202Y10642600D02*
G01*
X4705197Y10642600D01*
X4845202Y10388600D02*
G01*
X4705197Y10388600D01*
X4845202Y10134600D02*
G01*
X4705197Y10134600D01*
X4845202Y9880600D02*
G01*
X4705197Y9880600D01*
X4845202Y9626600D02*
G01*
X4705197Y9626600D01*
X4845202Y9372600D02*
G01*
X4705197Y9372600D01*
X4845202Y9118600D02*
G01*
X4705197Y9118600D01*
X4856200Y8864600D02*
G01*
X4716195Y8864600D01*
X4845202Y8610600D02*
G01*
X4705197Y8610600D01*
X4845202Y8356600D02*
G01*
X4705197Y8356600D01*
D28*
X1526031Y12463000D02*
G01*
X1526031Y12682999D01*
X1016000Y12463000D02*
G01*
X1016000Y12682999D01*
X6669531Y12463000D02*
G01*
X6669531Y12682999D01*
X6159500Y12463000D02*
G01*
X6159500Y12682999D01*
M02*
