G04 Layer: TopSilkLayer*
G04 EasyEDA v6.4.19.5, 2021-05-01T16:54:04+01:00*
G04 546d7772027e45709b81d84d5bd5c9e2,16c567bfc68a422cbc3e568a0f495cef,10*
G04 Gerber Generator version 0.2*
G04 Scale: 100 percent, Rotated: No, Reflected: No *
G04 Dimensions in millimeters *
G04 leading zeros omitted , absolute positions ,4 integer and 5 decimal *
%FSLAX45Y45*%
%MOMM*%

%ADD10C,0.2540*%
%ADD29C,0.1199*%
%ADD30C,0.1200*%
%ADD31C,0.1501*%
%ADD32C,0.3845*%
%ADD33C,0.1016*%
%ADD34C,0.0500*%
%ADD35C,0.3845*%
%ADD36C,0.1524*%
%ADD37C,0.2032*%

%LPD*%
D36*
X7405115Y3503929D02*
G01*
X7322058Y3503929D01*
X7306309Y3509263D01*
X7301229Y3514344D01*
X7296150Y3524757D01*
X7296150Y3535171D01*
X7301229Y3545586D01*
X7306309Y3550920D01*
X7322058Y3556000D01*
X7332472Y3556000D01*
X7379208Y3464560D02*
G01*
X7384288Y3464560D01*
X7394702Y3459479D01*
X7400036Y3454145D01*
X7405115Y3443731D01*
X7405115Y3422904D01*
X7400036Y3412489D01*
X7394702Y3407410D01*
X7384288Y3402329D01*
X7373874Y3402329D01*
X7363459Y3407410D01*
X7347965Y3417823D01*
X7296150Y3469639D01*
X7296150Y3396995D01*
X468884Y3608070D02*
G01*
X551942Y3608070D01*
X567689Y3602736D01*
X572770Y3597655D01*
X577850Y3587242D01*
X577850Y3576828D01*
X572770Y3566413D01*
X567689Y3561079D01*
X551942Y3556000D01*
X541528Y3556000D01*
X489712Y3642360D02*
G01*
X484378Y3652520D01*
X468884Y3668268D01*
X577850Y3668268D01*
X5492178Y5740907D02*
G01*
X5486844Y5751321D01*
X5476430Y5761736D01*
X5466270Y5766815D01*
X5445442Y5766815D01*
X5435028Y5761736D01*
X5424614Y5751321D01*
X5419280Y5740907D01*
X5414200Y5725160D01*
X5414200Y5699252D01*
X5419280Y5683757D01*
X5424614Y5673344D01*
X5435028Y5662929D01*
X5445442Y5657850D01*
X5466270Y5657850D01*
X5476430Y5662929D01*
X5486844Y5673344D01*
X5492178Y5683757D01*
X5526468Y5745987D02*
G01*
X5536882Y5751321D01*
X5552376Y5766815D01*
X5552376Y5657850D01*
X6743700Y5792215D02*
G01*
X6743700Y5683250D01*
X6743700Y5792215D02*
G01*
X6790436Y5792215D01*
X6805929Y5787136D01*
X6811263Y5781802D01*
X6816343Y5771387D01*
X6816343Y5760973D01*
X6811263Y5750560D01*
X6805929Y5745479D01*
X6790436Y5740400D01*
X6743700Y5740400D01*
X6780022Y5740400D02*
G01*
X6816343Y5683250D01*
X6850634Y5771387D02*
G01*
X6861047Y5776721D01*
X6876795Y5792215D01*
X6876795Y5683250D01*
X5448300Y5459984D02*
G01*
X5448300Y5568950D01*
X5448300Y5459984D02*
G01*
X5401563Y5459984D01*
X5386070Y5465063D01*
X5380736Y5470397D01*
X5375656Y5480812D01*
X5375656Y5491226D01*
X5380736Y5501639D01*
X5386070Y5506720D01*
X5401563Y5511800D01*
X5448300Y5511800D01*
X5411977Y5511800D02*
G01*
X5375656Y5568950D01*
X5336031Y5485892D02*
G01*
X5336031Y5480812D01*
X5330952Y5470397D01*
X5325618Y5465063D01*
X5315204Y5459984D01*
X5294629Y5459984D01*
X5284215Y5465063D01*
X5278881Y5470397D01*
X5273802Y5480812D01*
X5273802Y5491226D01*
X5278881Y5501639D01*
X5289295Y5517134D01*
X5341365Y5568950D01*
X5268468Y5568950D01*
X2858515Y7912100D02*
G01*
X2749550Y7912100D01*
X2858515Y7912100D02*
G01*
X2858515Y7865363D01*
X2853436Y7849870D01*
X2848102Y7844536D01*
X2837688Y7839455D01*
X2827274Y7839455D01*
X2816859Y7844536D01*
X2811779Y7849870D01*
X2806700Y7865363D01*
X2806700Y7912100D01*
X2806700Y7875778D02*
G01*
X2749550Y7839455D01*
X2858515Y7732268D02*
G01*
X2749550Y7784337D01*
X2858515Y7805165D02*
G01*
X2858515Y7732268D01*
X4939791Y7600378D02*
G01*
X4929377Y7595044D01*
X4918963Y7584630D01*
X4913884Y7574470D01*
X4913884Y7553642D01*
X4918963Y7543228D01*
X4929377Y7532814D01*
X4939791Y7527480D01*
X4955540Y7522400D01*
X4981447Y7522400D01*
X4996941Y7527480D01*
X5007356Y7532814D01*
X5017770Y7543228D01*
X5022850Y7553642D01*
X5022850Y7574470D01*
X5017770Y7584630D01*
X5007356Y7595044D01*
X4996941Y7600378D01*
X4913884Y7686484D02*
G01*
X4986527Y7634668D01*
X4986527Y7712646D01*
X4913884Y7686484D02*
G01*
X5022850Y7686484D01*
X7443215Y6705600D02*
G01*
X7334250Y6705600D01*
X7443215Y6705600D02*
G01*
X7443215Y6658863D01*
X7438136Y6643370D01*
X7432802Y6638036D01*
X7422388Y6632955D01*
X7411974Y6632955D01*
X7401559Y6638036D01*
X7396479Y6643370D01*
X7391400Y6658863D01*
X7391400Y6705600D01*
X7391400Y6669278D02*
G01*
X7334250Y6632955D01*
X7422388Y6598665D02*
G01*
X7427722Y6588252D01*
X7443215Y6572504D01*
X7334250Y6572504D01*
X7422388Y6538213D02*
G01*
X7427722Y6527800D01*
X7443215Y6512305D01*
X7334250Y6512305D01*
X6743700Y6109715D02*
G01*
X6743700Y6000750D01*
X6743700Y6109715D02*
G01*
X6790436Y6109715D01*
X6805929Y6104636D01*
X6811263Y6099302D01*
X6816343Y6088887D01*
X6816343Y6078473D01*
X6811263Y6068060D01*
X6805929Y6062979D01*
X6790436Y6057900D01*
X6743700Y6057900D01*
X6780022Y6057900D02*
G01*
X6816343Y6000750D01*
X6850634Y6088887D02*
G01*
X6861047Y6094221D01*
X6876795Y6109715D01*
X6876795Y6000750D01*
X6916165Y6083807D02*
G01*
X6916165Y6088887D01*
X6921500Y6099302D01*
X6926579Y6104636D01*
X6936993Y6109715D01*
X6957822Y6109715D01*
X6968236Y6104636D01*
X6973315Y6099302D01*
X6978650Y6088887D01*
X6978650Y6078473D01*
X6973315Y6068060D01*
X6962902Y6052565D01*
X6911086Y6000750D01*
X6983729Y6000750D01*
X3937000Y7951215D02*
G01*
X3937000Y7842250D01*
X3937000Y7951215D02*
G01*
X3973322Y7951215D01*
X3989070Y7946136D01*
X3999229Y7935721D01*
X4004563Y7925308D01*
X4009643Y7909560D01*
X4009643Y7883652D01*
X4004563Y7868158D01*
X3999229Y7857744D01*
X3989070Y7847329D01*
X3973322Y7842250D01*
X3937000Y7842250D01*
X4054347Y7951215D02*
G01*
X4111497Y7951215D01*
X4080509Y7909560D01*
X4096004Y7909560D01*
X4106418Y7904479D01*
X4111497Y7899400D01*
X4116831Y7883652D01*
X4116831Y7873237D01*
X4111497Y7857744D01*
X4101084Y7847329D01*
X4085590Y7842250D01*
X4070095Y7842250D01*
X4054347Y7847329D01*
X4049268Y7852410D01*
X4043934Y7862823D01*
X6044184Y6705600D02*
G01*
X6153150Y6705600D01*
X6044184Y6705600D02*
G01*
X6044184Y6752336D01*
X6049263Y6767829D01*
X6054597Y6773163D01*
X6065011Y6778244D01*
X6075425Y6778244D01*
X6085840Y6773163D01*
X6090920Y6767829D01*
X6096000Y6752336D01*
X6096000Y6705600D01*
X6096000Y6741921D02*
G01*
X6153150Y6778244D01*
X6044184Y6822947D02*
G01*
X6044184Y6880097D01*
X6085840Y6849110D01*
X6085840Y6864604D01*
X6090920Y6875018D01*
X6096000Y6880097D01*
X6111747Y6885431D01*
X6122161Y6885431D01*
X6137656Y6880097D01*
X6148070Y6869684D01*
X6153150Y6854189D01*
X6153150Y6838695D01*
X6148070Y6822947D01*
X6142990Y6817868D01*
X6132575Y6812534D01*
X4532884Y6324600D02*
G01*
X4641850Y6324600D01*
X4532884Y6324600D02*
G01*
X4532884Y6371336D01*
X4537963Y6386829D01*
X4543297Y6392163D01*
X4553711Y6397244D01*
X4564125Y6397244D01*
X4574540Y6392163D01*
X4579620Y6386829D01*
X4584700Y6371336D01*
X4584700Y6324600D01*
X4584700Y6360921D02*
G01*
X4641850Y6397244D01*
X4532884Y6483604D02*
G01*
X4605527Y6431534D01*
X4605527Y6509512D01*
X4532884Y6483604D02*
G01*
X4641850Y6483604D01*
X5358891Y7014171D02*
G01*
X5348477Y7008837D01*
X5338063Y6998423D01*
X5332984Y6988263D01*
X5332984Y6967435D01*
X5338063Y6957021D01*
X5348477Y6946607D01*
X5358891Y6941273D01*
X5374640Y6936193D01*
X5400547Y6936193D01*
X5416041Y6941273D01*
X5426456Y6946607D01*
X5436870Y6957021D01*
X5441950Y6967435D01*
X5441950Y6988263D01*
X5436870Y6998423D01*
X5426456Y7008837D01*
X5416041Y7014171D01*
X5332984Y7058875D02*
G01*
X5332984Y7116025D01*
X5374640Y7084783D01*
X5374640Y7100277D01*
X5379720Y7110691D01*
X5384800Y7116025D01*
X5400547Y7121105D01*
X5410961Y7121105D01*
X5426456Y7116025D01*
X5436870Y7105611D01*
X5441950Y7089863D01*
X5441950Y7074369D01*
X5436870Y7058875D01*
X5431790Y7053541D01*
X5421375Y7048461D01*
X3095028Y4660392D02*
G01*
X3100362Y4649978D01*
X3110776Y4639563D01*
X3120936Y4634484D01*
X3141764Y4634484D01*
X3152178Y4639563D01*
X3162592Y4649978D01*
X3167926Y4660392D01*
X3173006Y4676139D01*
X3173006Y4702047D01*
X3167926Y4717542D01*
X3162592Y4727955D01*
X3152178Y4738370D01*
X3141764Y4743450D01*
X3120936Y4743450D01*
X3110776Y4738370D01*
X3100362Y4727955D01*
X3095028Y4717542D01*
X2993174Y4670805D02*
G01*
X2998508Y4686300D01*
X3008922Y4696713D01*
X3024416Y4702047D01*
X3029496Y4702047D01*
X3045244Y4696713D01*
X3055658Y4686300D01*
X3060738Y4670805D01*
X3060738Y4665726D01*
X3055658Y4649978D01*
X3045244Y4639563D01*
X3029496Y4634484D01*
X3024416Y4634484D01*
X3008922Y4639563D01*
X2998508Y4649978D01*
X2993174Y4670805D01*
X2993174Y4696713D01*
X2998508Y4722876D01*
X3008922Y4738370D01*
X3024416Y4743450D01*
X3034830Y4743450D01*
X3050324Y4738370D01*
X3055658Y4727955D01*
X3877056Y2668778D02*
G01*
X3887470Y2658363D01*
X3902963Y2653284D01*
X3923791Y2653284D01*
X3939286Y2658363D01*
X3949700Y2668778D01*
X3949700Y2679192D01*
X3944620Y2689605D01*
X3939286Y2694939D01*
X3928872Y2700020D01*
X3897629Y2710434D01*
X3887470Y2715513D01*
X3882136Y2720847D01*
X3877056Y2731262D01*
X3877056Y2746755D01*
X3887470Y2757170D01*
X3902963Y2762250D01*
X3923791Y2762250D01*
X3939286Y2757170D01*
X3949700Y2746755D01*
X3842765Y2653284D02*
G01*
X3816604Y2762250D01*
X3790695Y2653284D02*
G01*
X3816604Y2762250D01*
X3790695Y2653284D02*
G01*
X3764788Y2762250D01*
X3738879Y2653284D02*
G01*
X3764788Y2762250D01*
X3704590Y2674112D02*
G01*
X3694175Y2668778D01*
X3678427Y2653284D01*
X3678427Y2762250D01*
X4228591Y5032971D02*
G01*
X4218177Y5027637D01*
X4207763Y5017223D01*
X4202684Y5007063D01*
X4202684Y4986235D01*
X4207763Y4975821D01*
X4218177Y4965407D01*
X4228591Y4960073D01*
X4244340Y4954993D01*
X4270247Y4954993D01*
X4285741Y4960073D01*
X4296156Y4965407D01*
X4306570Y4975821D01*
X4311650Y4986235D01*
X4311650Y5007063D01*
X4306570Y5017223D01*
X4296156Y5027637D01*
X4285741Y5032971D01*
X4223511Y5067261D02*
G01*
X4218177Y5077675D01*
X4202684Y5093169D01*
X4311650Y5093169D01*
X4218177Y5189943D02*
G01*
X4207763Y5184609D01*
X4202684Y5169115D01*
X4202684Y5158701D01*
X4207763Y5142953D01*
X4223511Y5132793D01*
X4249420Y5127459D01*
X4275327Y5127459D01*
X4296156Y5132793D01*
X4306570Y5142953D01*
X4311650Y5158701D01*
X4311650Y5163781D01*
X4306570Y5179529D01*
X4296156Y5189943D01*
X4280661Y5195023D01*
X4275327Y5195023D01*
X4259834Y5189943D01*
X4249420Y5179529D01*
X4244340Y5163781D01*
X4244340Y5158701D01*
X4249420Y5142953D01*
X4259834Y5132793D01*
X4275327Y5127459D01*
X4954015Y7543800D02*
G01*
X4845050Y7543800D01*
X4954015Y7543800D02*
G01*
X4954015Y7497063D01*
X4948936Y7481570D01*
X4943602Y7476236D01*
X4933188Y7471155D01*
X4922774Y7471155D01*
X4912359Y7476236D01*
X4907279Y7481570D01*
X4902200Y7497063D01*
X4902200Y7543800D01*
X4902200Y7507478D02*
G01*
X4845050Y7471155D01*
X4933188Y7436865D02*
G01*
X4938522Y7426452D01*
X4954015Y7410704D01*
X4845050Y7410704D01*
X4954015Y7314184D02*
G01*
X4954015Y7366000D01*
X4907279Y7371334D01*
X4912359Y7366000D01*
X4917693Y7350505D01*
X4917693Y7335012D01*
X4912359Y7319263D01*
X4902200Y7308850D01*
X4886452Y7303770D01*
X4876038Y7303770D01*
X4860543Y7308850D01*
X4850129Y7319263D01*
X4845050Y7335012D01*
X4845050Y7350505D01*
X4850129Y7366000D01*
X4855209Y7371334D01*
X4865624Y7376413D01*
X5492178Y6375907D02*
G01*
X5486844Y6386321D01*
X5476430Y6396736D01*
X5466270Y6401815D01*
X5445442Y6401815D01*
X5435028Y6396736D01*
X5424614Y6386321D01*
X5419280Y6375907D01*
X5414200Y6360160D01*
X5414200Y6334252D01*
X5419280Y6318757D01*
X5424614Y6308344D01*
X5435028Y6297929D01*
X5445442Y6292850D01*
X5466270Y6292850D01*
X5476430Y6297929D01*
X5486844Y6308344D01*
X5492178Y6318757D01*
X5531548Y6375907D02*
G01*
X5531548Y6380987D01*
X5536882Y6391402D01*
X5541962Y6396736D01*
X5552376Y6401815D01*
X5573204Y6401815D01*
X5583618Y6396736D01*
X5588698Y6391402D01*
X5594032Y6380987D01*
X5594032Y6370573D01*
X5588698Y6360160D01*
X5578284Y6344665D01*
X5526468Y6292850D01*
X5599112Y6292850D01*
X5789422Y5208015D02*
G01*
X5789422Y5099050D01*
X5753100Y5208015D02*
G01*
X5825743Y5208015D01*
X5860034Y5208015D02*
G01*
X5860034Y5099050D01*
X5860034Y5208015D02*
G01*
X5906770Y5208015D01*
X5922518Y5202936D01*
X5927597Y5197602D01*
X5932931Y5187187D01*
X5932931Y5171694D01*
X5927597Y5161279D01*
X5922518Y5156200D01*
X5906770Y5150865D01*
X5860034Y5150865D01*
X5972302Y5182107D02*
G01*
X5972302Y5187187D01*
X5977636Y5197602D01*
X5982715Y5202936D01*
X5993129Y5208015D01*
X6013958Y5208015D01*
X6024372Y5202936D01*
X6029452Y5197602D01*
X6034786Y5187187D01*
X6034786Y5176773D01*
X6029452Y5166360D01*
X6019038Y5150865D01*
X5967222Y5099050D01*
X6039865Y5099050D01*
X6183122Y7875015D02*
G01*
X6183122Y7766050D01*
X6146800Y7875015D02*
G01*
X6219443Y7875015D01*
X6253734Y7875015D02*
G01*
X6253734Y7766050D01*
X6253734Y7875015D02*
G01*
X6300470Y7875015D01*
X6316218Y7869936D01*
X6321297Y7864602D01*
X6326631Y7854187D01*
X6326631Y7838694D01*
X6321297Y7828279D01*
X6316218Y7823200D01*
X6300470Y7817865D01*
X6253734Y7817865D01*
X6371336Y7875015D02*
G01*
X6428486Y7875015D01*
X6397243Y7833360D01*
X6412738Y7833360D01*
X6423152Y7828279D01*
X6428486Y7823200D01*
X6433565Y7807452D01*
X6433565Y7797037D01*
X6428486Y7781544D01*
X6418072Y7771129D01*
X6402324Y7766050D01*
X6386829Y7766050D01*
X6371336Y7771129D01*
X6366002Y7776210D01*
X6360922Y7786623D01*
X1001521Y5462015D02*
G01*
X1001521Y5353050D01*
X965200Y5462015D02*
G01*
X1037844Y5462015D01*
X1072134Y5462015D02*
G01*
X1072134Y5353050D01*
X1072134Y5462015D02*
G01*
X1118870Y5462015D01*
X1134618Y5456936D01*
X1139697Y5451602D01*
X1145031Y5441187D01*
X1145031Y5425694D01*
X1139697Y5415279D01*
X1134618Y5410200D01*
X1118870Y5404865D01*
X1072134Y5404865D01*
X1179321Y5441187D02*
G01*
X1189736Y5446521D01*
X1205229Y5462015D01*
X1205229Y5353050D01*
X2488872Y7912100D02*
G01*
X2379906Y7912100D01*
X2488872Y7912100D02*
G01*
X2488872Y7865363D01*
X2483792Y7849870D01*
X2478458Y7844536D01*
X2468044Y7839455D01*
X2457630Y7839455D01*
X2447216Y7844536D01*
X2442136Y7849870D01*
X2437056Y7865363D01*
X2437056Y7912100D01*
X2437056Y7875778D02*
G01*
X2379906Y7839455D01*
X2473378Y7742681D02*
G01*
X2483792Y7748015D01*
X2488872Y7763510D01*
X2488872Y7773923D01*
X2483792Y7789418D01*
X2468044Y7799831D01*
X2442136Y7805165D01*
X2416228Y7805165D01*
X2395400Y7799831D01*
X2384986Y7789418D01*
X2379906Y7773923D01*
X2379906Y7768589D01*
X2384986Y7753095D01*
X2395400Y7742681D01*
X2410894Y7737602D01*
X2416228Y7737602D01*
X2431722Y7742681D01*
X2442136Y7753095D01*
X2447216Y7768589D01*
X2447216Y7773923D01*
X2442136Y7789418D01*
X2431722Y7799831D01*
X2416228Y7805165D01*
X2850578Y7430008D02*
G01*
X2845244Y7440421D01*
X2834830Y7450836D01*
X2824670Y7455915D01*
X2803842Y7455915D01*
X2793428Y7450836D01*
X2783014Y7440421D01*
X2777680Y7430008D01*
X2772600Y7414260D01*
X2772600Y7388352D01*
X2777680Y7372858D01*
X2783014Y7362444D01*
X2793428Y7352029D01*
X2803842Y7346950D01*
X2824670Y7346950D01*
X2834830Y7352029D01*
X2845244Y7362444D01*
X2850578Y7372858D01*
X2947098Y7440421D02*
G01*
X2942018Y7450836D01*
X2926270Y7455915D01*
X2916110Y7455915D01*
X2900362Y7450836D01*
X2889948Y7435087D01*
X2884868Y7409179D01*
X2884868Y7383271D01*
X2889948Y7362444D01*
X2900362Y7352029D01*
X2916110Y7346950D01*
X2921190Y7346950D01*
X2936684Y7352029D01*
X2947098Y7362444D01*
X2952432Y7377937D01*
X2952432Y7383271D01*
X2947098Y7398765D01*
X2936684Y7409179D01*
X2921190Y7414260D01*
X2916110Y7414260D01*
X2900362Y7409179D01*
X2889948Y7398765D01*
X2884868Y7383271D01*
X2490215Y6781800D02*
G01*
X2381250Y6781800D01*
X2490215Y6781800D02*
G01*
X2490215Y6735063D01*
X2485136Y6719570D01*
X2479802Y6714236D01*
X2469388Y6709155D01*
X2458974Y6709155D01*
X2448559Y6714236D01*
X2443479Y6719570D01*
X2438400Y6735063D01*
X2438400Y6781800D01*
X2438400Y6745478D02*
G01*
X2381250Y6709155D01*
X2453893Y6607302D02*
G01*
X2438400Y6612381D01*
X2427986Y6622795D01*
X2422652Y6638289D01*
X2422652Y6643623D01*
X2427986Y6659118D01*
X2438400Y6669531D01*
X2453893Y6674865D01*
X2458974Y6674865D01*
X2474722Y6669531D01*
X2485136Y6659118D01*
X2490215Y6643623D01*
X2490215Y6638289D01*
X2485136Y6622795D01*
X2474722Y6612381D01*
X2453893Y6607302D01*
X2427986Y6607302D01*
X2401824Y6612381D01*
X2386329Y6622795D01*
X2381250Y6638289D01*
X2381250Y6648704D01*
X2386329Y6664452D01*
X2396743Y6669531D01*
X2794000Y6414515D02*
G01*
X2794000Y6305550D01*
X2794000Y6414515D02*
G01*
X2840736Y6414515D01*
X2856229Y6409436D01*
X2861563Y6404102D01*
X2866643Y6393687D01*
X2866643Y6383273D01*
X2861563Y6372860D01*
X2856229Y6367779D01*
X2840736Y6362700D01*
X2794000Y6362700D01*
X2830322Y6362700D02*
G01*
X2866643Y6305550D01*
X2900934Y6393687D02*
G01*
X2911347Y6399021D01*
X2927095Y6414515D01*
X2927095Y6305550D01*
X2992374Y6414515D02*
G01*
X2976879Y6409436D01*
X2966465Y6393687D01*
X2961386Y6367779D01*
X2961386Y6352286D01*
X2966465Y6326123D01*
X2976879Y6310629D01*
X2992374Y6305550D01*
X3002788Y6305550D01*
X3018536Y6310629D01*
X3028950Y6326123D01*
X3034029Y6352286D01*
X3034029Y6367779D01*
X3028950Y6393687D01*
X3018536Y6409436D01*
X3002788Y6414515D01*
X2992374Y6414515D01*
X2762821Y5485892D02*
G01*
X2768155Y5475478D01*
X2778569Y5465063D01*
X2788729Y5459984D01*
X2809557Y5459984D01*
X2819971Y5465063D01*
X2830385Y5475478D01*
X2835719Y5485892D01*
X2840799Y5501639D01*
X2840799Y5527547D01*
X2835719Y5543042D01*
X2830385Y5553455D01*
X2819971Y5563870D01*
X2809557Y5568950D01*
X2788729Y5568950D01*
X2778569Y5563870D01*
X2768155Y5553455D01*
X2762821Y5543042D01*
X2655887Y5459984D02*
G01*
X2707703Y5568950D01*
X2728531Y5459984D02*
G01*
X2655887Y5459984D01*
X2750121Y6133592D02*
G01*
X2755455Y6123178D01*
X2765869Y6112763D01*
X2776029Y6107684D01*
X2796857Y6107684D01*
X2807271Y6112763D01*
X2817685Y6123178D01*
X2823019Y6133592D01*
X2828099Y6149339D01*
X2828099Y6175247D01*
X2823019Y6190742D01*
X2817685Y6201155D01*
X2807271Y6211570D01*
X2796857Y6216650D01*
X2776029Y6216650D01*
X2765869Y6211570D01*
X2755455Y6201155D01*
X2750121Y6190742D01*
X2689923Y6107684D02*
G01*
X2705417Y6112763D01*
X2710751Y6123178D01*
X2710751Y6133592D01*
X2705417Y6144005D01*
X2695003Y6149339D01*
X2674429Y6154420D01*
X2658681Y6159500D01*
X2648267Y6169913D01*
X2643187Y6180328D01*
X2643187Y6196076D01*
X2648267Y6206489D01*
X2653601Y6211570D01*
X2669095Y6216650D01*
X2689923Y6216650D01*
X2705417Y6211570D01*
X2710751Y6206489D01*
X2715831Y6196076D01*
X2715831Y6180328D01*
X2710751Y6169913D01*
X2700337Y6159500D01*
X2684589Y6154420D01*
X2664015Y6149339D01*
X2653601Y6144005D01*
X2648267Y6133592D01*
X2648267Y6123178D01*
X2653601Y6112763D01*
X2669095Y6107684D01*
X2689923Y6107684D01*
X1600707Y6104128D02*
G01*
X1611121Y6109462D01*
X1621536Y6119876D01*
X1626615Y6130036D01*
X1626615Y6150863D01*
X1621536Y6161278D01*
X1611121Y6171692D01*
X1600707Y6177026D01*
X1584960Y6182105D01*
X1559052Y6182105D01*
X1543557Y6177026D01*
X1533144Y6171692D01*
X1522729Y6161278D01*
X1517650Y6150863D01*
X1517650Y6130036D01*
X1522729Y6119876D01*
X1533144Y6109462D01*
X1543557Y6104128D01*
X1605787Y6069837D02*
G01*
X1611121Y6059423D01*
X1626615Y6043929D01*
X1517650Y6043929D01*
X1626615Y5999226D02*
G01*
X1626615Y5942076D01*
X1584960Y5973318D01*
X1584960Y5957570D01*
X1579879Y5947155D01*
X1574800Y5942076D01*
X1559052Y5936995D01*
X1548637Y5936995D01*
X1533144Y5942076D01*
X1522729Y5952489D01*
X1517650Y5967984D01*
X1517650Y5983731D01*
X1522729Y5999226D01*
X1527810Y6004305D01*
X1538223Y6009639D01*
X1510792Y5262371D02*
G01*
X1500378Y5257037D01*
X1489963Y5246623D01*
X1484884Y5236463D01*
X1484884Y5215636D01*
X1489963Y5205221D01*
X1500378Y5194807D01*
X1510792Y5189473D01*
X1526539Y5184394D01*
X1552447Y5184394D01*
X1567942Y5189473D01*
X1578355Y5194807D01*
X1588770Y5205221D01*
X1593850Y5215636D01*
X1593850Y5236463D01*
X1588770Y5246623D01*
X1578355Y5257037D01*
X1567942Y5262371D01*
X1505712Y5296662D02*
G01*
X1500378Y5307076D01*
X1484884Y5322570D01*
X1593850Y5322570D01*
X1505712Y5356860D02*
G01*
X1500378Y5367273D01*
X1484884Y5382768D01*
X1593850Y5382768D01*
X5206491Y8488171D02*
G01*
X5196077Y8482837D01*
X5185663Y8472424D01*
X5180584Y8462263D01*
X5180584Y8441436D01*
X5185663Y8431021D01*
X5196077Y8420608D01*
X5206491Y8415274D01*
X5222240Y8410194D01*
X5248147Y8410194D01*
X5263641Y8415274D01*
X5274056Y8420608D01*
X5284470Y8431021D01*
X5289550Y8441436D01*
X5289550Y8462263D01*
X5284470Y8472424D01*
X5274056Y8482837D01*
X5263641Y8488171D01*
X5201411Y8522462D02*
G01*
X5196077Y8532876D01*
X5180584Y8548370D01*
X5289550Y8548370D01*
X5206491Y8587994D02*
G01*
X5201411Y8587994D01*
X5190997Y8593074D01*
X5185663Y8598154D01*
X5180584Y8608568D01*
X5180584Y8629395D01*
X5185663Y8639810D01*
X5190997Y8645144D01*
X5201411Y8650224D01*
X5211825Y8650224D01*
X5222240Y8645144D01*
X5237734Y8634729D01*
X5289550Y8582660D01*
X5289550Y8655304D01*
X7353808Y9799828D02*
G01*
X7364222Y9805162D01*
X7374636Y9815576D01*
X7379715Y9825736D01*
X7379715Y9846563D01*
X7374636Y9856978D01*
X7364222Y9867392D01*
X7353808Y9872726D01*
X7338059Y9877805D01*
X7312152Y9877805D01*
X7296658Y9872726D01*
X7286243Y9867392D01*
X7275829Y9856978D01*
X7270750Y9846563D01*
X7270750Y9825736D01*
X7275829Y9815576D01*
X7286243Y9805162D01*
X7296658Y9799828D01*
X7358888Y9765537D02*
G01*
X7364222Y9755124D01*
X7379715Y9739629D01*
X7270750Y9739629D01*
X7379715Y9653270D02*
G01*
X7307072Y9705339D01*
X7307072Y9627362D01*
X7379715Y9653270D02*
G01*
X7270750Y9653270D01*
X3980878Y7163308D02*
G01*
X3975544Y7173721D01*
X3965130Y7184136D01*
X3954970Y7189215D01*
X3934142Y7189215D01*
X3923728Y7184136D01*
X3913314Y7173721D01*
X3907980Y7163308D01*
X3902900Y7147560D01*
X3902900Y7121652D01*
X3907980Y7106158D01*
X3913314Y7095744D01*
X3923728Y7085329D01*
X3934142Y7080250D01*
X3954970Y7080250D01*
X3965130Y7085329D01*
X3975544Y7095744D01*
X3980878Y7106158D01*
X4015168Y7168387D02*
G01*
X4025582Y7173721D01*
X4041076Y7189215D01*
X4041076Y7080250D01*
X4106608Y7189215D02*
G01*
X4090860Y7184136D01*
X4080700Y7168387D01*
X4075366Y7142479D01*
X4075366Y7126986D01*
X4080700Y7100823D01*
X4090860Y7085329D01*
X4106608Y7080250D01*
X4117022Y7080250D01*
X4132516Y7085329D01*
X4142930Y7100823D01*
X4148010Y7126986D01*
X4148010Y7142479D01*
X4142930Y7168387D01*
X4132516Y7184136D01*
X4117022Y7189215D01*
X4106608Y7189215D01*
X6114478Y9449308D02*
G01*
X6109144Y9459721D01*
X6098730Y9470136D01*
X6088570Y9475215D01*
X6067742Y9475215D01*
X6057328Y9470136D01*
X6046914Y9459721D01*
X6041580Y9449308D01*
X6036500Y9433560D01*
X6036500Y9407652D01*
X6041580Y9392158D01*
X6046914Y9381744D01*
X6057328Y9371329D01*
X6067742Y9366250D01*
X6088570Y9366250D01*
X6098730Y9371329D01*
X6109144Y9381744D01*
X6114478Y9392158D01*
X6148768Y9454387D02*
G01*
X6159182Y9459721D01*
X6174676Y9475215D01*
X6174676Y9366250D01*
X6271450Y9475215D02*
G01*
X6219380Y9475215D01*
X6214300Y9428479D01*
X6219380Y9433560D01*
X6234874Y9438894D01*
X6250622Y9438894D01*
X6266116Y9433560D01*
X6276530Y9423400D01*
X6281610Y9407652D01*
X6281610Y9397237D01*
X6276530Y9381744D01*
X6266116Y9371329D01*
X6250622Y9366250D01*
X6234874Y9366250D01*
X6219380Y9371329D01*
X6214300Y9376410D01*
X6208966Y9386824D01*
X5448808Y6547421D02*
G01*
X5459222Y6552755D01*
X5469636Y6563169D01*
X5474715Y6573329D01*
X5474715Y6594157D01*
X5469636Y6604571D01*
X5459222Y6614985D01*
X5448808Y6620319D01*
X5433059Y6625399D01*
X5407152Y6625399D01*
X5391658Y6620319D01*
X5381243Y6614985D01*
X5370829Y6604571D01*
X5365750Y6594157D01*
X5365750Y6573329D01*
X5370829Y6563169D01*
X5381243Y6552755D01*
X5391658Y6547421D01*
X5474715Y6450901D02*
G01*
X5474715Y6502717D01*
X5427979Y6508051D01*
X5433059Y6502717D01*
X5438393Y6487223D01*
X5438393Y6471729D01*
X5433059Y6455981D01*
X5422900Y6445567D01*
X5407152Y6440487D01*
X5396738Y6440487D01*
X5381243Y6445567D01*
X5370829Y6455981D01*
X5365750Y6471729D01*
X5365750Y6487223D01*
X5370829Y6502717D01*
X5375909Y6508051D01*
X5386324Y6513131D01*
X6743700Y5474715D02*
G01*
X6743700Y5365750D01*
X6743700Y5474715D02*
G01*
X6790436Y5474715D01*
X6805929Y5469636D01*
X6811263Y5464302D01*
X6816343Y5453887D01*
X6816343Y5443473D01*
X6811263Y5433060D01*
X6805929Y5427979D01*
X6790436Y5422900D01*
X6743700Y5422900D01*
X6780022Y5422900D02*
G01*
X6816343Y5365750D01*
X6881875Y5474715D02*
G01*
X6866381Y5469636D01*
X6855968Y5453887D01*
X6850634Y5427979D01*
X6850634Y5412486D01*
X6855968Y5386323D01*
X6866381Y5370829D01*
X6881875Y5365750D01*
X6892290Y5365750D01*
X6907784Y5370829D01*
X6918197Y5386323D01*
X6923531Y5412486D01*
X6923531Y5427979D01*
X6918197Y5453887D01*
X6907784Y5469636D01*
X6892290Y5474715D01*
X6881875Y5474715D01*
X5395722Y9475215D02*
G01*
X5395722Y9366250D01*
X5359400Y9475215D02*
G01*
X5432043Y9475215D01*
X5466334Y9475215D02*
G01*
X5466334Y9366250D01*
X5466334Y9475215D02*
G01*
X5513070Y9475215D01*
X5528818Y9470136D01*
X5533897Y9464802D01*
X5539231Y9454387D01*
X5539231Y9438894D01*
X5533897Y9428479D01*
X5528818Y9423400D01*
X5513070Y9418065D01*
X5466334Y9418065D01*
X5625338Y9475215D02*
G01*
X5573522Y9402571D01*
X5651500Y9402571D01*
X5625338Y9475215D02*
G01*
X5625338Y9366250D01*
X6451600Y10412984D02*
G01*
X6451600Y10490962D01*
X6446520Y10506455D01*
X6436106Y10516870D01*
X6420358Y10521950D01*
X6409943Y10521950D01*
X6394450Y10516870D01*
X6384036Y10506455D01*
X6378956Y10490962D01*
X6378956Y10412984D01*
X6339331Y10438892D02*
G01*
X6339331Y10433812D01*
X6334252Y10423397D01*
X6328918Y10418063D01*
X6318504Y10412984D01*
X6297929Y10412984D01*
X6287515Y10418063D01*
X6282181Y10423397D01*
X6277102Y10433812D01*
X6277102Y10444226D01*
X6282181Y10454639D01*
X6292595Y10470134D01*
X6344665Y10521950D01*
X6271768Y10521950D01*
X3962400Y6770115D02*
G01*
X3962400Y6692137D01*
X3967479Y6676644D01*
X3977893Y6666229D01*
X3993641Y6661150D01*
X4004056Y6661150D01*
X4019550Y6666229D01*
X4029963Y6676644D01*
X4035043Y6692137D01*
X4035043Y6770115D01*
X4069334Y6749287D02*
G01*
X4079747Y6754621D01*
X4095495Y6770115D01*
X4095495Y6661150D01*
X1524000Y9348215D02*
G01*
X1524000Y9270237D01*
X1529079Y9254744D01*
X1539494Y9244329D01*
X1555242Y9239250D01*
X1565655Y9239250D01*
X1581150Y9244329D01*
X1591563Y9254744D01*
X1596644Y9270237D01*
X1596644Y9348215D01*
X1683004Y9348215D02*
G01*
X1630934Y9275571D01*
X1708912Y9275571D01*
X1683004Y9348215D02*
G01*
X1683004Y9239250D01*
X3886200Y13489917D02*
G01*
X3886200Y13411939D01*
X3891279Y13396445D01*
X3901693Y13386031D01*
X3917441Y13380951D01*
X3927856Y13380951D01*
X3943350Y13386031D01*
X3953763Y13396445D01*
X3958843Y13411939D01*
X3958843Y13489917D01*
X4003547Y13489917D02*
G01*
X4060697Y13489917D01*
X4029709Y13448261D01*
X4045204Y13448261D01*
X4055618Y13443181D01*
X4060697Y13438101D01*
X4066031Y13422353D01*
X4066031Y13411939D01*
X4060697Y13396445D01*
X4050284Y13386031D01*
X4034790Y13380951D01*
X4019295Y13380951D01*
X4003547Y13386031D01*
X3998468Y13391111D01*
X3993134Y13401525D01*
D37*
X3781221Y9109603D02*
G01*
X3975023Y9109603D01*
X3781221Y9109603D02*
G01*
X3781221Y9192661D01*
X3790365Y9220347D01*
X3799509Y9229745D01*
X3818051Y9238889D01*
X3836593Y9238889D01*
X3855135Y9229745D01*
X3864279Y9220347D01*
X3873423Y9192661D01*
X3873423Y9109603D01*
X3873423Y9174373D02*
G01*
X3975023Y9238889D01*
X3781221Y9373763D02*
G01*
X3975023Y9299849D01*
X3781221Y9373763D02*
G01*
X3975023Y9447677D01*
X3910507Y9327535D02*
G01*
X3910507Y9419991D01*
X3808907Y9637923D02*
G01*
X3790365Y9619381D01*
X3781221Y9591695D01*
X3781221Y9554865D01*
X3790365Y9527179D01*
X3808907Y9508637D01*
X3827449Y9508637D01*
X3845737Y9517781D01*
X3855135Y9527179D01*
X3864279Y9545467D01*
X3882821Y9601093D01*
X3891965Y9619381D01*
X3901109Y9628779D01*
X3919651Y9637923D01*
X3947337Y9637923D01*
X3965879Y9619381D01*
X3975023Y9591695D01*
X3975023Y9554865D01*
X3965879Y9527179D01*
X3947337Y9508637D01*
X3781221Y9698883D02*
G01*
X3975023Y9698883D01*
X3781221Y9698883D02*
G01*
X3781221Y9781941D01*
X3790365Y9809627D01*
X3799509Y9819025D01*
X3818051Y9828169D01*
X3845737Y9828169D01*
X3864279Y9819025D01*
X3873423Y9809627D01*
X3882821Y9781941D01*
X3882821Y9698883D01*
X3781221Y9889129D02*
G01*
X3975023Y9889129D01*
X3781221Y9889129D02*
G01*
X3781221Y9972187D01*
X3790365Y9999873D01*
X3799509Y10009271D01*
X3818051Y10018415D01*
X3836593Y10018415D01*
X3855135Y10009271D01*
X3864279Y9999873D01*
X3873423Y9972187D01*
X3873423Y9889129D02*
G01*
X3873423Y9972187D01*
X3882821Y9999873D01*
X3891965Y10009271D01*
X3910507Y10018415D01*
X3938193Y10018415D01*
X3956735Y10009271D01*
X3965879Y9999873D01*
X3975023Y9972187D01*
X3975023Y9889129D01*
X3781221Y10079375D02*
G01*
X3975023Y10079375D01*
X3781221Y10079375D02*
G01*
X3781221Y10199517D01*
X3873423Y10079375D02*
G01*
X3873423Y10153289D01*
X3975023Y10079375D02*
G01*
X3975023Y10199517D01*
X3781221Y10260477D02*
G01*
X3975023Y10260477D01*
X3781221Y10260477D02*
G01*
X3781221Y10343535D01*
X3790365Y10371221D01*
X3799509Y10380619D01*
X3818051Y10389763D01*
X3836593Y10389763D01*
X3855135Y10380619D01*
X3864279Y10371221D01*
X3873423Y10343535D01*
X3873423Y10260477D01*
X3873423Y10324993D02*
G01*
X3975023Y10389763D01*
X3781221Y10450723D02*
G01*
X3975023Y10450723D01*
X3781221Y10450723D02*
G01*
X3781221Y10533781D01*
X3790365Y10561467D01*
X3799509Y10570865D01*
X3818051Y10580009D01*
X3836593Y10580009D01*
X3855135Y10570865D01*
X3864279Y10561467D01*
X3873423Y10533781D01*
X3873423Y10450723D01*
X3873423Y10515493D02*
G01*
X3975023Y10580009D01*
X3781221Y10640969D02*
G01*
X3873423Y10714883D01*
X3975023Y10714883D01*
X3781221Y10788797D02*
G01*
X3873423Y10714883D01*
X3781221Y10991997D02*
G01*
X3975023Y10991997D01*
X3781221Y10991997D02*
G01*
X3781221Y11075055D01*
X3790365Y11102741D01*
X3799509Y11112139D01*
X3818051Y11121283D01*
X3845737Y11121283D01*
X3864279Y11112139D01*
X3873423Y11102741D01*
X3882821Y11075055D01*
X3882821Y10991997D01*
X3781221Y11182243D02*
G01*
X3975023Y11182243D01*
X3781221Y11385443D02*
G01*
X3975023Y11385443D01*
X3781221Y11385443D02*
G01*
X3781221Y11468501D01*
X3790365Y11496187D01*
X3799509Y11505585D01*
X3818051Y11514729D01*
X3845737Y11514729D01*
X3864279Y11505585D01*
X3873423Y11496187D01*
X3882821Y11468501D01*
X3882821Y11385443D01*
X3781221Y11575689D02*
G01*
X3975023Y11575689D01*
X3827449Y11775333D02*
G01*
X3808907Y11765935D01*
X3790365Y11747393D01*
X3781221Y11729105D01*
X3781221Y11692021D01*
X3790365Y11673733D01*
X3808907Y11655191D01*
X3827449Y11645793D01*
X3855135Y11636649D01*
X3901109Y11636649D01*
X3929049Y11645793D01*
X3947337Y11655191D01*
X3965879Y11673733D01*
X3975023Y11692021D01*
X3975023Y11729105D01*
X3965879Y11747393D01*
X3947337Y11765935D01*
X3929049Y11775333D01*
X3781221Y11891665D02*
G01*
X3790365Y11873123D01*
X3808907Y11854581D01*
X3827449Y11845437D01*
X3855135Y11836293D01*
X3901109Y11836293D01*
X3929049Y11845437D01*
X3947337Y11854581D01*
X3965879Y11873123D01*
X3975023Y11891665D01*
X3975023Y11928495D01*
X3965879Y11947037D01*
X3947337Y11965579D01*
X3929049Y11974723D01*
X3901109Y11983867D01*
X3855135Y11983867D01*
X3827449Y11974723D01*
X3808907Y11965579D01*
X3790365Y11947037D01*
X3781221Y11928495D01*
X3781221Y11891665D01*
X3781221Y12251837D02*
G01*
X3975023Y12251837D01*
X3781221Y12187067D02*
G01*
X3781221Y12316353D01*
X3781221Y12377313D02*
G01*
X3975023Y12377313D01*
X3781221Y12506853D02*
G01*
X3975023Y12506853D01*
X3873423Y12377313D02*
G01*
X3873423Y12506853D01*
D36*
X1088644Y13053821D02*
G01*
X1078229Y13064236D01*
X1062736Y13069315D01*
X1041907Y13069315D01*
X1026413Y13064236D01*
X1016000Y13053821D01*
X1016000Y13043408D01*
X1021079Y13032994D01*
X1026413Y13027660D01*
X1036828Y13022579D01*
X1068070Y13012165D01*
X1078229Y13007086D01*
X1083563Y13001752D01*
X1088644Y12991337D01*
X1088644Y12975844D01*
X1078229Y12965429D01*
X1062736Y12960350D01*
X1041907Y12960350D01*
X1026413Y12965429D01*
X1016000Y12975844D01*
X1122934Y13069315D02*
G01*
X1149095Y12960350D01*
X1175004Y13069315D02*
G01*
X1149095Y12960350D01*
X1175004Y13069315D02*
G01*
X1200912Y12960350D01*
X1226820Y13069315D02*
G01*
X1200912Y12960350D01*
X1266444Y13043408D02*
G01*
X1266444Y13048487D01*
X1271523Y13058902D01*
X1276857Y13064236D01*
X1287271Y13069315D01*
X1308100Y13069315D01*
X1318260Y13064236D01*
X1323594Y13058902D01*
X1328673Y13048487D01*
X1328673Y13038074D01*
X1323594Y13027660D01*
X1313179Y13012165D01*
X1261110Y12960350D01*
X1334007Y12960350D01*
X6232143Y13053821D02*
G01*
X6221729Y13064236D01*
X6206236Y13069315D01*
X6185408Y13069315D01*
X6169913Y13064236D01*
X6159500Y13053821D01*
X6159500Y13043408D01*
X6164579Y13032994D01*
X6169913Y13027660D01*
X6180327Y13022579D01*
X6211570Y13012165D01*
X6221729Y13007086D01*
X6227063Y13001752D01*
X6232143Y12991337D01*
X6232143Y12975844D01*
X6221729Y12965429D01*
X6206236Y12960350D01*
X6185408Y12960350D01*
X6169913Y12965429D01*
X6159500Y12975844D01*
X6266434Y13069315D02*
G01*
X6292595Y12960350D01*
X6318504Y13069315D02*
G01*
X6292595Y12960350D01*
X6318504Y13069315D02*
G01*
X6344411Y12960350D01*
X6370320Y13069315D02*
G01*
X6344411Y12960350D01*
X6415024Y13069315D02*
G01*
X6472174Y13069315D01*
X6441186Y13027660D01*
X6456679Y13027660D01*
X6467093Y13022579D01*
X6472174Y13017500D01*
X6477508Y13001752D01*
X6477508Y12991337D01*
X6472174Y12975844D01*
X6461759Y12965429D01*
X6446265Y12960350D01*
X6430772Y12960350D01*
X6415024Y12965429D01*
X6409943Y12970510D01*
X6404609Y12980924D01*
X801878Y10829544D02*
G01*
X791463Y10819129D01*
X786384Y10803636D01*
X786384Y10782808D01*
X791463Y10767313D01*
X801878Y10756900D01*
X812292Y10756900D01*
X822705Y10761979D01*
X828039Y10767313D01*
X833120Y10777728D01*
X843534Y10808970D01*
X848613Y10819129D01*
X853947Y10824463D01*
X864362Y10829544D01*
X879855Y10829544D01*
X890270Y10819129D01*
X895350Y10803636D01*
X895350Y10782808D01*
X890270Y10767313D01*
X879855Y10756900D01*
X786384Y10863834D02*
G01*
X895350Y10889995D01*
X786384Y10915904D02*
G01*
X895350Y10889995D01*
X786384Y10915904D02*
G01*
X895350Y10941812D01*
X786384Y10967720D02*
G01*
X895350Y10941812D01*
X786384Y11054079D02*
G01*
X859028Y11002010D01*
X859028Y11079987D01*
X786384Y11054079D02*
G01*
X895350Y11054079D01*
X6970433Y7640548D02*
G01*
X6970433Y7749768D01*
X6970433Y7640548D02*
G01*
X6923443Y7640548D01*
X6907949Y7645882D01*
X6902869Y7650962D01*
X6897535Y7661376D01*
X6897535Y7671790D01*
X6902869Y7682204D01*
X6907949Y7687284D01*
X6923443Y7692618D01*
X6970433Y7692618D01*
X6933857Y7692618D02*
G01*
X6897535Y7749768D01*
X6863245Y7640548D02*
G01*
X6821843Y7749768D01*
X6780187Y7640548D02*
G01*
X6821843Y7749768D01*
X6745897Y7661376D02*
G01*
X6735483Y7656296D01*
X6719989Y7640548D01*
X6719989Y7749768D01*
X291782Y7535100D02*
G01*
X400748Y7535100D01*
X291782Y7535100D02*
G01*
X291782Y7581836D01*
X296862Y7597330D01*
X302196Y7602664D01*
X312610Y7607744D01*
X323024Y7607744D01*
X333438Y7602664D01*
X338518Y7597330D01*
X343598Y7581836D01*
X343598Y7535100D01*
X343598Y7571422D02*
G01*
X400748Y7607744D01*
X291782Y7642034D02*
G01*
X400748Y7683690D01*
X291782Y7725346D02*
G01*
X400748Y7683690D01*
X317690Y7764716D02*
G01*
X312610Y7764716D01*
X302196Y7770050D01*
X296862Y7775130D01*
X291782Y7785544D01*
X291782Y7806372D01*
X296862Y7816786D01*
X302196Y7821866D01*
X312610Y7827200D01*
X323024Y7827200D01*
X333438Y7821866D01*
X348932Y7811452D01*
X400748Y7759636D01*
X400748Y7832280D01*
X5715000Y10110215D02*
G01*
X5715000Y10001250D01*
X5715000Y10110215D02*
G01*
X5761736Y10110215D01*
X5777229Y10105136D01*
X5782563Y10099802D01*
X5787643Y10089387D01*
X5787643Y10078974D01*
X5782563Y10068560D01*
X5777229Y10063479D01*
X5761736Y10058400D01*
X5715000Y10058400D01*
X5751322Y10058400D02*
G01*
X5787643Y10001250D01*
X5821934Y10089387D02*
G01*
X5832347Y10094721D01*
X5848095Y10110215D01*
X5848095Y10001250D01*
X5892800Y10110215D02*
G01*
X5949950Y10110215D01*
X5918708Y10068560D01*
X5934202Y10068560D01*
X5944615Y10063479D01*
X5949950Y10058400D01*
X5955029Y10042652D01*
X5955029Y10032237D01*
X5949950Y10016744D01*
X5939536Y10006329D01*
X5923788Y10001250D01*
X5908293Y10001250D01*
X5892800Y10006329D01*
X5887465Y10011410D01*
X5882386Y10021824D01*
X5715000Y10542015D02*
G01*
X5715000Y10433050D01*
X5715000Y10542015D02*
G01*
X5761736Y10542015D01*
X5777229Y10536936D01*
X5782563Y10531602D01*
X5787643Y10521187D01*
X5787643Y10510774D01*
X5782563Y10500360D01*
X5777229Y10495279D01*
X5761736Y10490200D01*
X5715000Y10490200D01*
X5751322Y10490200D02*
G01*
X5787643Y10433050D01*
X5821934Y10521187D02*
G01*
X5832347Y10526521D01*
X5848095Y10542015D01*
X5848095Y10433050D01*
X5934202Y10542015D02*
G01*
X5882386Y10469371D01*
X5960109Y10469371D01*
X5934202Y10542015D02*
G01*
X5934202Y10433050D01*
D29*
X7255992Y2575991D02*
G01*
X5461000Y2575991D01*
X5461000Y4529988D01*
X7255992Y4529988D01*
X7255992Y2575991D01*
X618007Y4536008D02*
G01*
X2413000Y4536008D01*
X2413000Y2582011D01*
X618007Y2582011D01*
X618007Y4536008D01*
D30*
X5791644Y5367781D02*
G01*
X5079682Y5367781D01*
X5079682Y5579618D01*
X5791644Y5579618D01*
X5791644Y5367781D01*
X6422643Y5571744D02*
G01*
X6422643Y5604763D01*
X7064756Y5604763D01*
X7064756Y5571744D01*
X6422643Y5375655D02*
G01*
X6422643Y5342636D01*
X7064756Y5342636D01*
X7064756Y5375655D01*
X5769356Y5680455D02*
G01*
X5769356Y5647436D01*
X5127243Y5647436D01*
X5127243Y5680455D01*
X5769356Y5876544D02*
G01*
X5769356Y5909563D01*
X5127243Y5909563D01*
X5127243Y5876544D01*
X2638043Y8233155D02*
G01*
X2671063Y8233155D01*
X2671063Y7591044D01*
X2638043Y7591044D01*
X2441956Y8233155D02*
G01*
X2408936Y8233155D01*
X2408936Y7591044D01*
X2441956Y7591044D01*
X5312918Y7899844D02*
G01*
X5312918Y7187882D01*
X5101081Y7187882D01*
X5101081Y7899844D01*
X5312918Y7899844D01*
X7222743Y7026655D02*
G01*
X7255763Y7026655D01*
X7255763Y6384544D01*
X7222743Y6384544D01*
X7026656Y7026655D02*
G01*
X6993636Y7026655D01*
X6993636Y6384544D01*
X7026656Y6384544D01*
X6422643Y5889244D02*
G01*
X6422643Y5922263D01*
X7064756Y5922263D01*
X7064756Y5889244D01*
X6422643Y5693155D02*
G01*
X6422643Y5660136D01*
X7064756Y5660136D01*
X7064756Y5693155D01*
X3781043Y7705597D02*
G01*
X3781043Y7689850D01*
X3781043Y7473950D02*
G01*
X3781043Y7458202D01*
X6264656Y6384544D02*
G01*
X6231636Y6384544D01*
X6231636Y7026655D01*
X6264656Y7026655D01*
X6460743Y6384544D02*
G01*
X6493763Y6384544D01*
X6493763Y7026655D01*
X6460743Y7026655D01*
X4753356Y6003544D02*
G01*
X4720336Y6003544D01*
X4720336Y6645655D01*
X4753356Y6645655D01*
X4949443Y6003544D02*
G01*
X4982463Y6003544D01*
X4982463Y6645655D01*
X4949443Y6645655D01*
X5523484Y6984961D02*
G01*
X6033515Y6984961D01*
X5523484Y6989025D02*
G01*
X6033515Y6989025D01*
X5523484Y6993089D02*
G01*
X6033515Y6993089D01*
X5523738Y6996899D02*
G01*
X6033261Y6996899D01*
X5523991Y7000963D02*
G01*
X6033008Y7000963D01*
X5524245Y7005027D02*
G01*
X6032754Y7005027D01*
X5524500Y7009091D02*
G01*
X6032500Y7009091D01*
X5525008Y7012901D02*
G01*
X5680456Y7012901D01*
X5876543Y7012901D02*
G01*
X6031991Y7012901D01*
X5525515Y7016965D02*
G01*
X5680456Y7016965D01*
X5876543Y7016965D02*
G01*
X6031484Y7016965D01*
X5526024Y7021029D02*
G01*
X5680456Y7021029D01*
X5876543Y7021029D02*
G01*
X6030975Y7021029D01*
X5526531Y7025093D02*
G01*
X5680456Y7025093D01*
X5876543Y7025093D02*
G01*
X6030468Y7025093D01*
X5527293Y7028903D02*
G01*
X5680456Y7028903D01*
X5876543Y7028903D02*
G01*
X6029706Y7028903D01*
X5527802Y7032967D02*
G01*
X5680456Y7032967D01*
X5876543Y7032967D02*
G01*
X6029197Y7032967D01*
X5528818Y7037031D02*
G01*
X5680456Y7037031D01*
X5876543Y7037031D02*
G01*
X6028181Y7037031D01*
X5529579Y7041095D02*
G01*
X5680456Y7041095D01*
X5876543Y7041095D02*
G01*
X6027420Y7041095D01*
X5530595Y7044905D02*
G01*
X5680456Y7044905D01*
X5876543Y7044905D02*
G01*
X6026404Y7044905D01*
X5531611Y7048969D02*
G01*
X5680456Y7048969D01*
X5876543Y7048969D02*
G01*
X6025388Y7048969D01*
X5532627Y7053033D02*
G01*
X5680456Y7053033D01*
X5876543Y7053033D02*
G01*
X6024625Y7053033D01*
X5533643Y7057097D02*
G01*
X5680456Y7057097D01*
X5876543Y7057097D02*
G01*
X6023356Y7057097D01*
X5534913Y7061161D02*
G01*
X5680456Y7061161D01*
X5876543Y7061161D02*
G01*
X6022086Y7061161D01*
X5536184Y7064971D02*
G01*
X5680456Y7064971D01*
X5876543Y7064971D02*
G01*
X6020815Y7064971D01*
X5537454Y7069035D02*
G01*
X5680456Y7069035D01*
X5876543Y7069035D02*
G01*
X6019545Y7069035D01*
X5538977Y7073099D02*
G01*
X5680456Y7073099D01*
X5876543Y7073099D02*
G01*
X6018022Y7073099D01*
X5540247Y7077163D02*
G01*
X5680456Y7077163D01*
X5876543Y7077163D02*
G01*
X6016752Y7077163D01*
X5542025Y7080973D02*
G01*
X5680456Y7080973D01*
X5876543Y7080973D02*
G01*
X6014974Y7080973D01*
X5543550Y7085037D02*
G01*
X5680456Y7085037D01*
X5876543Y7085037D02*
G01*
X6013450Y7085037D01*
X5545327Y7089101D02*
G01*
X5680456Y7089101D01*
X5876543Y7089101D02*
G01*
X6011925Y7089101D01*
X5547106Y7093165D02*
G01*
X5680456Y7093165D01*
X5876543Y7093165D02*
G01*
X6009893Y7093165D01*
X5548884Y7096975D02*
G01*
X5680456Y7096975D01*
X5876543Y7096975D02*
G01*
X6008115Y7096975D01*
X5550915Y7101039D02*
G01*
X5680456Y7101039D01*
X5876543Y7101039D02*
G01*
X6006084Y7101039D01*
X5552947Y7105103D02*
G01*
X5680456Y7105103D01*
X5876543Y7105103D02*
G01*
X6004052Y7105103D01*
X5554979Y7109167D02*
G01*
X5680456Y7109167D01*
X5876543Y7109167D02*
G01*
X6002020Y7109167D01*
X5557265Y7112977D02*
G01*
X5680456Y7112977D01*
X5876543Y7112977D02*
G01*
X5999734Y7112977D01*
X5559552Y7117041D02*
G01*
X5680456Y7117041D01*
X5876543Y7117041D02*
G01*
X5997447Y7117041D01*
X5562091Y7121105D02*
G01*
X5680456Y7121105D01*
X5876543Y7121105D02*
G01*
X5994908Y7121105D01*
X5564377Y7125169D02*
G01*
X5680456Y7125169D01*
X5876543Y7125169D02*
G01*
X5992622Y7125169D01*
X5567172Y7128979D02*
G01*
X5680456Y7128979D01*
X5876543Y7128979D02*
G01*
X5989827Y7128979D01*
X5569965Y7133043D02*
G01*
X5680456Y7133043D01*
X5876543Y7133043D02*
G01*
X5987034Y7133043D01*
X5572759Y7137107D02*
G01*
X5680456Y7137107D01*
X5876543Y7137107D02*
G01*
X5984240Y7137107D01*
X5575808Y7141171D02*
G01*
X5680456Y7141171D01*
X5876543Y7141171D02*
G01*
X5981191Y7141171D01*
X5578856Y7144981D02*
G01*
X5680456Y7144981D01*
X5876543Y7144981D02*
G01*
X5978143Y7144981D01*
X5581904Y7149045D02*
G01*
X5680456Y7149045D01*
X5876543Y7149045D02*
G01*
X5975095Y7149045D01*
X5585206Y7153109D02*
G01*
X5680456Y7153109D01*
X5876543Y7153109D02*
G01*
X5971793Y7153109D01*
X5588761Y7157173D02*
G01*
X5680456Y7157173D01*
X5876543Y7157173D02*
G01*
X5968238Y7157173D01*
X5592318Y7160983D02*
G01*
X5680456Y7160983D01*
X5876543Y7160983D02*
G01*
X5964681Y7160983D01*
X5596127Y7165047D02*
G01*
X5680456Y7165047D01*
X5876543Y7165047D02*
G01*
X5960872Y7165047D01*
X5600191Y7169111D02*
G01*
X5680456Y7169111D01*
X5876543Y7169111D02*
G01*
X5956808Y7169111D01*
X5604256Y7173175D02*
G01*
X5680456Y7173175D01*
X5876543Y7173175D02*
G01*
X5952743Y7173175D01*
X5608574Y7176985D02*
G01*
X5680456Y7176985D01*
X5876543Y7176985D02*
G01*
X5948425Y7176985D01*
X5613145Y7181049D02*
G01*
X5680456Y7181049D01*
X5876543Y7181049D02*
G01*
X5943854Y7181049D01*
X5617972Y7185113D02*
G01*
X5680456Y7185113D01*
X5876543Y7185113D02*
G01*
X5939027Y7185113D01*
X5622797Y7189177D02*
G01*
X5680456Y7189177D01*
X5876543Y7189177D02*
G01*
X5934202Y7189177D01*
X5628131Y7192987D02*
G01*
X5680456Y7192987D01*
X5876543Y7192987D02*
G01*
X5928868Y7192987D01*
X5633720Y7197051D02*
G01*
X5680456Y7197051D01*
X5876543Y7197051D02*
G01*
X5923279Y7197051D01*
X5639561Y7201115D02*
G01*
X5680456Y7201115D01*
X5876543Y7201115D02*
G01*
X5917438Y7201115D01*
X5645911Y7205179D02*
G01*
X5680456Y7205179D01*
X5876543Y7205179D02*
G01*
X5911088Y7205179D01*
X5652515Y7208989D02*
G01*
X5904484Y7208989D01*
X5659627Y7213053D02*
G01*
X5897372Y7213053D01*
X5667247Y7217117D02*
G01*
X5889752Y7217117D01*
X5675629Y7221181D02*
G01*
X5881370Y7221181D01*
X5685027Y7224991D02*
G01*
X5871972Y7224991D01*
X5695695Y7229055D02*
G01*
X5861304Y7229055D01*
X5707888Y7233119D02*
G01*
X5849111Y7233119D01*
X5722620Y7237183D02*
G01*
X5834379Y7237183D01*
X5743193Y7240993D02*
G01*
X5813806Y7240993D01*
X5778500Y6640029D02*
G01*
X5778500Y6759917D01*
X5713475Y6699973D02*
G01*
X5843524Y6699973D01*
X3124238Y4824984D02*
G01*
X3124238Y5335015D01*
X3120174Y4824984D02*
G01*
X3120174Y5335015D01*
X3116110Y4824984D02*
G01*
X3116110Y5335015D01*
X3112300Y4825237D02*
G01*
X3112300Y5334762D01*
X3108236Y4825492D02*
G01*
X3108236Y5334507D01*
X3104172Y4825745D02*
G01*
X3104172Y5334254D01*
X3100108Y4826000D02*
G01*
X3100108Y5334000D01*
X3096298Y4826507D02*
G01*
X3096298Y4981955D01*
X3096298Y5178044D02*
G01*
X3096298Y5333492D01*
X3092234Y4827015D02*
G01*
X3092234Y4981955D01*
X3092234Y5178044D02*
G01*
X3092234Y5332984D01*
X3088170Y4827523D02*
G01*
X3088170Y4981955D01*
X3088170Y5178044D02*
G01*
X3088170Y5332476D01*
X3084106Y4828031D02*
G01*
X3084106Y4981955D01*
X3084106Y5178044D02*
G01*
X3084106Y5331968D01*
X3080296Y4828794D02*
G01*
X3080296Y4981955D01*
X3080296Y5178044D02*
G01*
X3080296Y5331205D01*
X3076232Y4829302D02*
G01*
X3076232Y4981955D01*
X3076232Y5178044D02*
G01*
X3076232Y5330697D01*
X3072168Y4830318D02*
G01*
X3072168Y4981955D01*
X3072168Y5178044D02*
G01*
X3072168Y5329681D01*
X3068104Y4831079D02*
G01*
X3068104Y4981955D01*
X3068104Y5178044D02*
G01*
X3068104Y5328920D01*
X3064294Y4832095D02*
G01*
X3064294Y4981955D01*
X3064294Y5178044D02*
G01*
X3064294Y5327904D01*
X3060230Y4833112D02*
G01*
X3060230Y4981955D01*
X3060230Y5178044D02*
G01*
X3060230Y5326887D01*
X3056166Y4834128D02*
G01*
X3056166Y4981955D01*
X3056166Y5178044D02*
G01*
X3056166Y5326126D01*
X3052102Y4835144D02*
G01*
X3052102Y4981955D01*
X3052102Y5178044D02*
G01*
X3052102Y5324855D01*
X3048038Y4836413D02*
G01*
X3048038Y4981955D01*
X3048038Y5178044D02*
G01*
X3048038Y5323586D01*
X3044228Y4837684D02*
G01*
X3044228Y4981955D01*
X3044228Y5178044D02*
G01*
X3044228Y5322315D01*
X3040164Y4838954D02*
G01*
X3040164Y4981955D01*
X3040164Y5178044D02*
G01*
X3040164Y5321045D01*
X3036100Y4840478D02*
G01*
X3036100Y4981955D01*
X3036100Y5178044D02*
G01*
X3036100Y5319521D01*
X3032036Y4841747D02*
G01*
X3032036Y4981955D01*
X3032036Y5178044D02*
G01*
X3032036Y5318252D01*
X3028226Y4843526D02*
G01*
X3028226Y4981955D01*
X3028226Y5178044D02*
G01*
X3028226Y5316473D01*
X3024162Y4845050D02*
G01*
X3024162Y4981955D01*
X3024162Y5178044D02*
G01*
X3024162Y5314950D01*
X3020098Y4846828D02*
G01*
X3020098Y4981955D01*
X3020098Y5178044D02*
G01*
X3020098Y5313426D01*
X3016034Y4848605D02*
G01*
X3016034Y4981955D01*
X3016034Y5178044D02*
G01*
X3016034Y5311394D01*
X3012224Y4850384D02*
G01*
X3012224Y4981955D01*
X3012224Y5178044D02*
G01*
X3012224Y5309615D01*
X3008160Y4852415D02*
G01*
X3008160Y4981955D01*
X3008160Y5178044D02*
G01*
X3008160Y5307584D01*
X3004096Y4854447D02*
G01*
X3004096Y4981955D01*
X3004096Y5178044D02*
G01*
X3004096Y5305552D01*
X3000032Y4856479D02*
G01*
X3000032Y4981955D01*
X3000032Y5178044D02*
G01*
X3000032Y5303520D01*
X2996222Y4858765D02*
G01*
X2996222Y4981955D01*
X2996222Y5178044D02*
G01*
X2996222Y5301234D01*
X2992158Y4861052D02*
G01*
X2992158Y4981955D01*
X2992158Y5178044D02*
G01*
X2992158Y5298947D01*
X2988094Y4863592D02*
G01*
X2988094Y4981955D01*
X2988094Y5178044D02*
G01*
X2988094Y5296407D01*
X2984030Y4865878D02*
G01*
X2984030Y4981955D01*
X2984030Y5178044D02*
G01*
X2984030Y5294121D01*
X2980220Y4868671D02*
G01*
X2980220Y4981955D01*
X2980220Y5178044D02*
G01*
X2980220Y5291328D01*
X2976156Y4871465D02*
G01*
X2976156Y4981955D01*
X2976156Y5178044D02*
G01*
X2976156Y5288534D01*
X2972092Y4874260D02*
G01*
X2972092Y4981955D01*
X2972092Y5178044D02*
G01*
X2972092Y5285739D01*
X2968028Y4877307D02*
G01*
X2968028Y4981955D01*
X2968028Y5178044D02*
G01*
X2968028Y5282692D01*
X2964218Y4880355D02*
G01*
X2964218Y4981955D01*
X2964218Y5178044D02*
G01*
X2964218Y5279644D01*
X2960154Y4883404D02*
G01*
X2960154Y4981955D01*
X2960154Y5178044D02*
G01*
X2960154Y5276595D01*
X2956090Y4886705D02*
G01*
X2956090Y4981955D01*
X2956090Y5178044D02*
G01*
X2956090Y5273294D01*
X2952026Y4890262D02*
G01*
X2952026Y4981955D01*
X2952026Y5178044D02*
G01*
X2952026Y5269737D01*
X2948216Y4893818D02*
G01*
X2948216Y4981955D01*
X2948216Y5178044D02*
G01*
X2948216Y5266181D01*
X2944152Y4897628D02*
G01*
X2944152Y4981955D01*
X2944152Y5178044D02*
G01*
X2944152Y5262371D01*
X2940088Y4901692D02*
G01*
X2940088Y4981955D01*
X2940088Y5178044D02*
G01*
X2940088Y5258307D01*
X2936024Y4905755D02*
G01*
X2936024Y4981955D01*
X2936024Y5178044D02*
G01*
X2936024Y5254244D01*
X2932214Y4910073D02*
G01*
X2932214Y4981955D01*
X2932214Y5178044D02*
G01*
X2932214Y5249926D01*
X2928150Y4914645D02*
G01*
X2928150Y4981955D01*
X2928150Y5178044D02*
G01*
X2928150Y5245354D01*
X2924086Y4919471D02*
G01*
X2924086Y4981955D01*
X2924086Y5178044D02*
G01*
X2924086Y5240528D01*
X2920022Y4924297D02*
G01*
X2920022Y4981955D01*
X2920022Y5178044D02*
G01*
X2920022Y5235702D01*
X2916212Y4929631D02*
G01*
X2916212Y4981955D01*
X2916212Y5178044D02*
G01*
X2916212Y5230368D01*
X2912148Y4935220D02*
G01*
X2912148Y4981955D01*
X2912148Y5178044D02*
G01*
X2912148Y5224779D01*
X2908084Y4941062D02*
G01*
X2908084Y4981955D01*
X2908084Y5178044D02*
G01*
X2908084Y5218937D01*
X2904020Y4947412D02*
G01*
X2904020Y4981955D01*
X2904020Y5178044D02*
G01*
X2904020Y5212587D01*
X2900210Y4954015D02*
G01*
X2900210Y5205984D01*
X2896146Y4961128D02*
G01*
X2896146Y5198871D01*
X2892082Y4968747D02*
G01*
X2892082Y5191252D01*
X2888018Y4977129D02*
G01*
X2888018Y5182870D01*
X2884208Y4986528D02*
G01*
X2884208Y5173471D01*
X2880144Y4997195D02*
G01*
X2880144Y5162804D01*
X2876080Y5009387D02*
G01*
X2876080Y5150612D01*
X2872016Y5024120D02*
G01*
X2872016Y5135879D01*
X2868206Y5044694D02*
G01*
X2868206Y5115305D01*
X3469170Y5080000D02*
G01*
X3349282Y5080000D01*
X3409226Y5014976D02*
G01*
X3409226Y5145023D01*
D31*
X4610100Y4320997D02*
G01*
X3410102Y4320997D01*
D29*
X4483100Y2794000D02*
G01*
X3283102Y2794000D01*
X4737100Y2794000D02*
G01*
X4737100Y4193997D01*
X3156102Y2794000D02*
G01*
X3156102Y4193997D01*
D30*
X4648200Y4658829D02*
G01*
X4648200Y4778717D01*
X4583175Y4718773D02*
G01*
X4713224Y4718773D01*
X4733543Y7864855D02*
G01*
X4766563Y7864855D01*
X4766563Y7222744D01*
X4733543Y7222744D01*
X4537456Y7864855D02*
G01*
X4504436Y7864855D01*
X4504436Y7222744D01*
X4537456Y7222744D01*
X5791644Y6002781D02*
G01*
X5079682Y6002781D01*
X5079682Y6214618D01*
X5791644Y6214618D01*
X5791644Y6002781D01*
X2268400Y8233155D02*
G01*
X2301420Y8233155D01*
X2301420Y7591044D01*
X2268400Y7591044D01*
X2072312Y8233155D02*
G01*
X2039292Y8233155D01*
X2039292Y7591044D01*
X2072312Y7591044D01*
X3150044Y7056881D02*
G01*
X2438082Y7056881D01*
X2438082Y7268718D01*
X3150044Y7268718D01*
X3150044Y7056881D01*
X2269743Y7102855D02*
G01*
X2302763Y7102855D01*
X2302763Y6460744D01*
X2269743Y6460744D01*
X2073656Y7102855D02*
G01*
X2040636Y7102855D01*
X2040636Y6460744D01*
X2073656Y6460744D01*
X2472943Y6194044D02*
G01*
X2472943Y6227063D01*
X3115056Y6227063D01*
X3115056Y6194044D01*
X2472943Y5997955D02*
G01*
X2472943Y5964936D01*
X3115056Y5964936D01*
X3115056Y5997955D01*
X2463355Y5859018D02*
G01*
X3175317Y5859018D01*
X3175317Y5647181D01*
X2463355Y5647181D01*
X2463355Y5859018D01*
X2450655Y6506718D02*
G01*
X3162617Y6506718D01*
X3162617Y6294881D01*
X2450655Y6294881D01*
X2450655Y6506718D01*
X1433576Y6159500D02*
G01*
X623823Y6159500D01*
X1433576Y6155436D02*
G01*
X623823Y6155436D01*
X1433576Y6151626D02*
G01*
X623823Y6151626D01*
X1433576Y6147562D02*
G01*
X623823Y6147562D01*
X1433321Y6143497D02*
G01*
X624078Y6143497D01*
X1433321Y6139434D02*
G01*
X624078Y6139434D01*
X1433068Y6135623D02*
G01*
X624331Y6135623D01*
X1432813Y6131560D02*
G01*
X624586Y6131560D01*
X1432560Y6127495D02*
G01*
X624839Y6127495D01*
X1432305Y6123431D02*
G01*
X625094Y6123431D01*
X1431797Y6119621D02*
G01*
X625602Y6119621D01*
X1431289Y6115557D02*
G01*
X626110Y6115557D01*
X1430781Y6111494D02*
G01*
X626618Y6111494D01*
X1430273Y6107429D02*
G01*
X627126Y6107429D01*
X1430020Y6103620D02*
G01*
X627379Y6103620D01*
X1429257Y6099555D02*
G01*
X628142Y6099555D01*
X1428750Y6095492D02*
G01*
X628650Y6095492D01*
X1427987Y6091428D02*
G01*
X629412Y6091428D01*
X1427479Y6087363D02*
G01*
X629920Y6087363D01*
X1426718Y6083300D02*
G01*
X630681Y6083300D01*
X1425702Y6079489D02*
G01*
X1126744Y6079489D01*
X930655Y6079489D02*
G01*
X631697Y6079489D01*
X1424939Y6075426D02*
G01*
X1126744Y6075426D01*
X930655Y6075426D02*
G01*
X632460Y6075426D01*
X1424178Y6071362D02*
G01*
X1126744Y6071362D01*
X930655Y6071362D02*
G01*
X633221Y6071362D01*
X1423415Y6067297D02*
G01*
X1126744Y6067297D01*
X930655Y6067297D02*
G01*
X633984Y6067297D01*
X1422400Y6063487D02*
G01*
X1126744Y6063487D01*
X930655Y6063487D02*
G01*
X635000Y6063487D01*
X1421384Y6059423D02*
G01*
X1126744Y6059423D01*
X930655Y6059423D02*
G01*
X636015Y6059423D01*
X1420368Y6055360D02*
G01*
X1126744Y6055360D01*
X930655Y6055360D02*
G01*
X637031Y6055360D01*
X1419097Y6051295D02*
G01*
X1126744Y6051295D01*
X930655Y6051295D02*
G01*
X638302Y6051295D01*
X1418081Y6047486D02*
G01*
X1126744Y6047486D01*
X930655Y6047486D02*
G01*
X639318Y6047486D01*
X1417065Y6043421D02*
G01*
X1126744Y6043421D01*
X930655Y6043421D02*
G01*
X640334Y6043421D01*
X1415795Y6039357D02*
G01*
X1126744Y6039357D01*
X930655Y6039357D02*
G01*
X641604Y6039357D01*
X1414526Y6035294D02*
G01*
X1126744Y6035294D01*
X930655Y6035294D02*
G01*
X642873Y6035294D01*
X1413255Y6031484D02*
G01*
X1126744Y6031484D01*
X930655Y6031484D02*
G01*
X644144Y6031484D01*
X1411986Y6027420D02*
G01*
X1126744Y6027420D01*
X930655Y6027420D02*
G01*
X645413Y6027420D01*
X1410462Y6023355D02*
G01*
X1126744Y6023355D01*
X930655Y6023355D02*
G01*
X646937Y6023355D01*
X1408937Y6019292D02*
G01*
X1126744Y6019292D01*
X930655Y6019292D02*
G01*
X648462Y6019292D01*
X1407668Y6015481D02*
G01*
X1126744Y6015481D01*
X930655Y6015481D02*
G01*
X649731Y6015481D01*
X1405889Y6011418D02*
G01*
X1126744Y6011418D01*
X930655Y6011418D02*
G01*
X651510Y6011418D01*
X1404620Y6007354D02*
G01*
X1126744Y6007354D01*
X930655Y6007354D02*
G01*
X652779Y6007354D01*
X1402842Y6003289D02*
G01*
X1126744Y6003289D01*
X930655Y6003289D02*
G01*
X654557Y6003289D01*
X1401318Y5999479D02*
G01*
X1126744Y5999479D01*
X930655Y5999479D02*
G01*
X656081Y5999479D01*
X1399286Y5995415D02*
G01*
X1126744Y5995415D01*
X930655Y5995415D02*
G01*
X658113Y5995415D01*
X1397762Y5991352D02*
G01*
X1126744Y5991352D01*
X930655Y5991352D02*
G01*
X659637Y5991352D01*
X1395729Y5987287D02*
G01*
X1126744Y5987287D01*
X930655Y5987287D02*
G01*
X661670Y5987287D01*
X1393952Y5983478D02*
G01*
X1126744Y5983478D01*
X930655Y5983478D02*
G01*
X663447Y5983478D01*
X1391920Y5979413D02*
G01*
X1126744Y5979413D01*
X930655Y5979413D02*
G01*
X665479Y5979413D01*
X1389887Y5975350D02*
G01*
X1126744Y5975350D01*
X930655Y5975350D02*
G01*
X667512Y5975350D01*
X1388110Y5971286D02*
G01*
X1126744Y5971286D01*
X930655Y5971286D02*
G01*
X669289Y5971286D01*
X1385823Y5967476D02*
G01*
X1126744Y5967476D01*
X930655Y5967476D02*
G01*
X671576Y5967476D01*
X1383792Y5963412D02*
G01*
X1126744Y5963412D01*
X930655Y5963412D02*
G01*
X673607Y5963412D01*
X1381505Y5959347D02*
G01*
X1126744Y5959347D01*
X930655Y5959347D02*
G01*
X675894Y5959347D01*
X1379220Y5955284D02*
G01*
X1126744Y5955284D01*
X930655Y5955284D02*
G01*
X678179Y5955284D01*
X1376934Y5951473D02*
G01*
X1126744Y5951473D01*
X930655Y5951473D02*
G01*
X680465Y5951473D01*
X1374394Y5947410D02*
G01*
X1126744Y5947410D01*
X930655Y5947410D02*
G01*
X683005Y5947410D01*
X1372107Y5943345D02*
G01*
X1126744Y5943345D01*
X930655Y5943345D02*
G01*
X685292Y5943345D01*
X1369568Y5939281D02*
G01*
X1126744Y5939281D01*
X930655Y5939281D02*
G01*
X687831Y5939281D01*
X1367028Y5935471D02*
G01*
X1126744Y5935471D01*
X930655Y5935471D02*
G01*
X690371Y5935471D01*
X1364234Y5931407D02*
G01*
X1126744Y5931407D01*
X930655Y5931407D02*
G01*
X693165Y5931407D01*
X1361694Y5927344D02*
G01*
X1126744Y5927344D01*
X930655Y5927344D02*
G01*
X695705Y5927344D01*
X1358900Y5923279D02*
G01*
X1126744Y5923279D01*
X930655Y5923279D02*
G01*
X698500Y5923279D01*
X1355852Y5919470D02*
G01*
X1126744Y5919470D01*
X930655Y5919470D02*
G01*
X701547Y5919470D01*
X1353057Y5915405D02*
G01*
X1126744Y5915405D01*
X930655Y5915405D02*
G01*
X704342Y5915405D01*
X1350010Y5911342D02*
G01*
X1126744Y5911342D01*
X930655Y5911342D02*
G01*
X707389Y5911342D01*
X1346962Y5907531D02*
G01*
X1126744Y5907531D01*
X930655Y5907531D02*
G01*
X710437Y5907531D01*
X1343660Y5903468D02*
G01*
X1126744Y5903468D01*
X930655Y5903468D02*
G01*
X713739Y5903468D01*
X1340612Y5899404D02*
G01*
X1126744Y5899404D01*
X930655Y5899404D02*
G01*
X716787Y5899404D01*
X1337055Y5895339D02*
G01*
X1126744Y5895339D01*
X930655Y5895339D02*
G01*
X720344Y5895339D01*
X1333754Y5891529D02*
G01*
X1126744Y5891529D01*
X930655Y5891529D02*
G01*
X723645Y5891529D01*
X1330197Y5887465D02*
G01*
X1126744Y5887465D01*
X930655Y5887465D02*
G01*
X727202Y5887465D01*
X1326642Y5883402D02*
G01*
X730757Y5883402D01*
X1322831Y5879337D02*
G01*
X734568Y5879337D01*
X1319021Y5875528D02*
G01*
X738378Y5875528D01*
X1315212Y5871463D02*
G01*
X742187Y5871463D01*
X1311147Y5867400D02*
G01*
X746252Y5867400D01*
X1307084Y5863336D02*
G01*
X750315Y5863336D01*
X1302765Y5859526D02*
G01*
X754634Y5859526D01*
X1298447Y5855462D02*
G01*
X758952Y5855462D01*
X1293876Y5851397D02*
G01*
X763523Y5851397D01*
X1289304Y5847334D02*
G01*
X768095Y5847334D01*
X1284478Y5843523D02*
G01*
X772921Y5843523D01*
X1279397Y5839460D02*
G01*
X778002Y5839460D01*
X1274318Y5835395D02*
G01*
X783081Y5835395D01*
X1268984Y5831331D02*
G01*
X788415Y5831331D01*
X1263650Y5827521D02*
G01*
X793750Y5827521D01*
X1258062Y5823457D02*
G01*
X799337Y5823457D01*
X1252220Y5819394D02*
G01*
X805179Y5819394D01*
X1246123Y5815329D02*
G01*
X811276Y5815329D01*
X1239520Y5811520D02*
G01*
X817879Y5811520D01*
X1232915Y5807455D02*
G01*
X824484Y5807455D01*
X1226057Y5803392D02*
G01*
X831342Y5803392D01*
X1218945Y5799328D02*
G01*
X838454Y5799328D01*
X1211326Y5795518D02*
G01*
X846073Y5795518D01*
X1203197Y5791454D02*
G01*
X854202Y5791454D01*
X1194815Y5787389D02*
G01*
X862584Y5787389D01*
X1185671Y5783326D02*
G01*
X871728Y5783326D01*
X1176020Y5779515D02*
G01*
X881379Y5779515D01*
X1165605Y5775452D02*
G01*
X891794Y5775452D01*
X1154176Y5771387D02*
G01*
X903223Y5771387D01*
X1141476Y5767323D02*
G01*
X915923Y5767323D01*
X1126997Y5763513D02*
G01*
X930402Y5763513D01*
X1109979Y5759450D02*
G01*
X947420Y5759450D01*
X1088389Y5755386D02*
G01*
X969010Y5755386D01*
X1053337Y5751321D02*
G01*
X1004062Y5751321D01*
X1028700Y6554470D02*
G01*
X1028700Y6434581D01*
X1093723Y6494526D02*
G01*
X963676Y6494526D01*
X1677923Y5207000D02*
G01*
X2487675Y5207000D01*
X1677923Y5211063D02*
G01*
X2487675Y5211063D01*
X1677923Y5214873D02*
G01*
X2487675Y5214873D01*
X1677923Y5218937D02*
G01*
X2487675Y5218937D01*
X1678178Y5223002D02*
G01*
X2487422Y5223002D01*
X1678178Y5227065D02*
G01*
X2487422Y5227065D01*
X1678431Y5230876D02*
G01*
X2487168Y5230876D01*
X1678686Y5234939D02*
G01*
X2486913Y5234939D01*
X1678939Y5239004D02*
G01*
X2486659Y5239004D01*
X1679194Y5243068D02*
G01*
X2486406Y5243068D01*
X1679702Y5246878D02*
G01*
X2485897Y5246878D01*
X1680210Y5250942D02*
G01*
X2485390Y5250942D01*
X1680718Y5255005D02*
G01*
X2484881Y5255005D01*
X1681226Y5259070D02*
G01*
X2484374Y5259070D01*
X1681479Y5262879D02*
G01*
X2484120Y5262879D01*
X1682242Y5266944D02*
G01*
X2483358Y5266944D01*
X1682750Y5271007D02*
G01*
X2482850Y5271007D01*
X1683512Y5275071D02*
G01*
X2482088Y5275071D01*
X1684020Y5279136D02*
G01*
X2481579Y5279136D01*
X1684781Y5283200D02*
G01*
X2480818Y5283200D01*
X1685797Y5287010D02*
G01*
X1984756Y5287010D01*
X2180843Y5287010D02*
G01*
X2479802Y5287010D01*
X1686560Y5291073D02*
G01*
X1984756Y5291073D01*
X2180843Y5291073D02*
G01*
X2479040Y5291073D01*
X1687321Y5295137D02*
G01*
X1984756Y5295137D01*
X2180843Y5295137D02*
G01*
X2478277Y5295137D01*
X1688084Y5299202D02*
G01*
X1984756Y5299202D01*
X2180843Y5299202D02*
G01*
X2477515Y5299202D01*
X1689100Y5303012D02*
G01*
X1984756Y5303012D01*
X2180843Y5303012D02*
G01*
X2476500Y5303012D01*
X1690115Y5307076D02*
G01*
X1984756Y5307076D01*
X2180843Y5307076D02*
G01*
X2475484Y5307076D01*
X1691131Y5311139D02*
G01*
X1984756Y5311139D01*
X2180843Y5311139D02*
G01*
X2474468Y5311139D01*
X1692402Y5315204D02*
G01*
X1984756Y5315204D01*
X2180843Y5315204D02*
G01*
X2473197Y5315204D01*
X1693418Y5319013D02*
G01*
X1984756Y5319013D01*
X2180843Y5319013D02*
G01*
X2472181Y5319013D01*
X1694434Y5323078D02*
G01*
X1984756Y5323078D01*
X2180843Y5323078D02*
G01*
X2471165Y5323078D01*
X1695704Y5327142D02*
G01*
X1984756Y5327142D01*
X2180843Y5327142D02*
G01*
X2469895Y5327142D01*
X1696973Y5331205D02*
G01*
X1984756Y5331205D01*
X2180843Y5331205D02*
G01*
X2468625Y5331205D01*
X1698244Y5335015D02*
G01*
X1984756Y5335015D01*
X2180843Y5335015D02*
G01*
X2467356Y5335015D01*
X1699513Y5339079D02*
G01*
X1984756Y5339079D01*
X2180843Y5339079D02*
G01*
X2466086Y5339079D01*
X1701037Y5343144D02*
G01*
X1984756Y5343144D01*
X2180843Y5343144D02*
G01*
X2464561Y5343144D01*
X1702562Y5347207D02*
G01*
X1984756Y5347207D01*
X2180843Y5347207D02*
G01*
X2463038Y5347207D01*
X1703831Y5351018D02*
G01*
X1984756Y5351018D01*
X2180843Y5351018D02*
G01*
X2461768Y5351018D01*
X1705610Y5355081D02*
G01*
X1984756Y5355081D01*
X2180843Y5355081D02*
G01*
X2459990Y5355081D01*
X1706879Y5359145D02*
G01*
X1984756Y5359145D01*
X2180843Y5359145D02*
G01*
X2458720Y5359145D01*
X1708657Y5363210D02*
G01*
X1984756Y5363210D01*
X2180843Y5363210D02*
G01*
X2456941Y5363210D01*
X1710181Y5367020D02*
G01*
X1984756Y5367020D01*
X2180843Y5367020D02*
G01*
X2455418Y5367020D01*
X1712213Y5371084D02*
G01*
X1984756Y5371084D01*
X2180843Y5371084D02*
G01*
X2453386Y5371084D01*
X1713737Y5375147D02*
G01*
X1984756Y5375147D01*
X2180843Y5375147D02*
G01*
X2451861Y5375147D01*
X1715770Y5379212D02*
G01*
X1984756Y5379212D01*
X2180843Y5379212D02*
G01*
X2449829Y5379212D01*
X1717547Y5383021D02*
G01*
X1984756Y5383021D01*
X2180843Y5383021D02*
G01*
X2448052Y5383021D01*
X1719579Y5387086D02*
G01*
X1984756Y5387086D01*
X2180843Y5387086D02*
G01*
X2446020Y5387086D01*
X1721612Y5391150D02*
G01*
X1984756Y5391150D01*
X2180843Y5391150D02*
G01*
X2443988Y5391150D01*
X1723389Y5395213D02*
G01*
X1984756Y5395213D01*
X2180843Y5395213D02*
G01*
X2442209Y5395213D01*
X1725676Y5399023D02*
G01*
X1984756Y5399023D01*
X2180843Y5399023D02*
G01*
X2439924Y5399023D01*
X1727707Y5403087D02*
G01*
X1984756Y5403087D01*
X2180843Y5403087D02*
G01*
X2437891Y5403087D01*
X1729994Y5407152D02*
G01*
X1984756Y5407152D01*
X2180843Y5407152D02*
G01*
X2435606Y5407152D01*
X1732279Y5411215D02*
G01*
X1984756Y5411215D01*
X2180843Y5411215D02*
G01*
X2433320Y5411215D01*
X1734565Y5415026D02*
G01*
X1984756Y5415026D01*
X2180843Y5415026D02*
G01*
X2431034Y5415026D01*
X1737105Y5419089D02*
G01*
X1984756Y5419089D01*
X2180843Y5419089D02*
G01*
X2428493Y5419089D01*
X1739392Y5423154D02*
G01*
X1984756Y5423154D01*
X2180843Y5423154D02*
G01*
X2426208Y5423154D01*
X1741931Y5427218D02*
G01*
X1984756Y5427218D01*
X2180843Y5427218D02*
G01*
X2423668Y5427218D01*
X1744471Y5431028D02*
G01*
X1984756Y5431028D01*
X2180843Y5431028D02*
G01*
X2421127Y5431028D01*
X1747265Y5435092D02*
G01*
X1984756Y5435092D01*
X2180843Y5435092D02*
G01*
X2418334Y5435092D01*
X1749805Y5439155D02*
G01*
X1984756Y5439155D01*
X2180843Y5439155D02*
G01*
X2415793Y5439155D01*
X1752600Y5443220D02*
G01*
X1984756Y5443220D01*
X2180843Y5443220D02*
G01*
X2413000Y5443220D01*
X1755647Y5447029D02*
G01*
X1984756Y5447029D01*
X2180843Y5447029D02*
G01*
X2409952Y5447029D01*
X1758442Y5451094D02*
G01*
X1984756Y5451094D01*
X2180843Y5451094D02*
G01*
X2407158Y5451094D01*
X1761489Y5455157D02*
G01*
X1984756Y5455157D01*
X2180843Y5455157D02*
G01*
X2404109Y5455157D01*
X1764537Y5458968D02*
G01*
X1984756Y5458968D01*
X2180843Y5458968D02*
G01*
X2401061Y5458968D01*
X1767839Y5463031D02*
G01*
X1984756Y5463031D01*
X2180843Y5463031D02*
G01*
X2397759Y5463031D01*
X1770887Y5467095D02*
G01*
X1984756Y5467095D01*
X2180843Y5467095D02*
G01*
X2394711Y5467095D01*
X1774444Y5471160D02*
G01*
X1984756Y5471160D01*
X2180843Y5471160D02*
G01*
X2391156Y5471160D01*
X1777745Y5474970D02*
G01*
X1984756Y5474970D01*
X2180843Y5474970D02*
G01*
X2387854Y5474970D01*
X1781302Y5479034D02*
G01*
X1984756Y5479034D01*
X2180843Y5479034D02*
G01*
X2384297Y5479034D01*
X1784857Y5483097D02*
G01*
X2380741Y5483097D01*
X1788668Y5487162D02*
G01*
X2376931Y5487162D01*
X1792478Y5490971D02*
G01*
X2373122Y5490971D01*
X1796287Y5495036D02*
G01*
X2369311Y5495036D01*
X1800352Y5499100D02*
G01*
X2365247Y5499100D01*
X1804415Y5503163D02*
G01*
X2361184Y5503163D01*
X1808734Y5506973D02*
G01*
X2356865Y5506973D01*
X1813052Y5511037D02*
G01*
X2352547Y5511037D01*
X1817623Y5515102D02*
G01*
X2347975Y5515102D01*
X1822195Y5519165D02*
G01*
X2343404Y5519165D01*
X1827021Y5522976D02*
G01*
X2338577Y5522976D01*
X1832102Y5527039D02*
G01*
X2333497Y5527039D01*
X1837181Y5531104D02*
G01*
X2328418Y5531104D01*
X1842515Y5535168D02*
G01*
X2323084Y5535168D01*
X1847850Y5538978D02*
G01*
X2317750Y5538978D01*
X1853437Y5543042D02*
G01*
X2312161Y5543042D01*
X1859279Y5547105D02*
G01*
X2306320Y5547105D01*
X1865376Y5551170D02*
G01*
X2300224Y5551170D01*
X1871979Y5554979D02*
G01*
X2293620Y5554979D01*
X1878584Y5559044D02*
G01*
X2287015Y5559044D01*
X1885442Y5563107D02*
G01*
X2280158Y5563107D01*
X1892554Y5567171D02*
G01*
X2273045Y5567171D01*
X1900173Y5570981D02*
G01*
X2265425Y5570981D01*
X1908302Y5575045D02*
G01*
X2257297Y5575045D01*
X1916684Y5579110D02*
G01*
X2248915Y5579110D01*
X1925828Y5583173D02*
G01*
X2239772Y5583173D01*
X1935479Y5586984D02*
G01*
X2230120Y5586984D01*
X1945893Y5591047D02*
G01*
X2219706Y5591047D01*
X1957324Y5595112D02*
G01*
X2208275Y5595112D01*
X1970024Y5599176D02*
G01*
X2195575Y5599176D01*
X1984502Y5602986D02*
G01*
X2181097Y5602986D01*
X2001520Y5607050D02*
G01*
X2164079Y5607050D01*
X2023109Y5611113D02*
G01*
X2142490Y5611113D01*
X2058161Y5615178D02*
G01*
X2107438Y5615178D01*
X2082800Y4812029D02*
G01*
X2082800Y4931918D01*
X2017775Y4871973D02*
G01*
X2147824Y4871973D01*
X5373624Y8432800D02*
G01*
X6183375Y8432800D01*
X5373624Y8436863D02*
G01*
X6183375Y8436863D01*
X5373624Y8440674D02*
G01*
X6183375Y8440674D01*
X5373624Y8444737D02*
G01*
X6183375Y8444737D01*
X5373877Y8448802D02*
G01*
X6183122Y8448802D01*
X5373877Y8452865D02*
G01*
X6183122Y8452865D01*
X5374131Y8456676D02*
G01*
X6182868Y8456676D01*
X5374386Y8460739D02*
G01*
X6182613Y8460739D01*
X5374640Y8464804D02*
G01*
X6182359Y8464804D01*
X5374893Y8468868D02*
G01*
X6182106Y8468868D01*
X5375402Y8472678D02*
G01*
X6181597Y8472678D01*
X5375909Y8476742D02*
G01*
X6181090Y8476742D01*
X5376418Y8480805D02*
G01*
X6180581Y8480805D01*
X5376925Y8484870D02*
G01*
X6180074Y8484870D01*
X5377179Y8488679D02*
G01*
X6179820Y8488679D01*
X5377941Y8492744D02*
G01*
X6179058Y8492744D01*
X5378450Y8496808D02*
G01*
X6178550Y8496808D01*
X5379211Y8500871D02*
G01*
X6177788Y8500871D01*
X5379720Y8504936D02*
G01*
X6177279Y8504936D01*
X5380481Y8509000D02*
G01*
X6176518Y8509000D01*
X5381497Y8512810D02*
G01*
X5680456Y8512810D01*
X5876543Y8512810D02*
G01*
X6175502Y8512810D01*
X5382259Y8516874D02*
G01*
X5680456Y8516874D01*
X5876543Y8516874D02*
G01*
X6174740Y8516874D01*
X5383022Y8520937D02*
G01*
X5680456Y8520937D01*
X5876543Y8520937D02*
G01*
X6173977Y8520937D01*
X5383784Y8525002D02*
G01*
X5680456Y8525002D01*
X5876543Y8525002D02*
G01*
X6173215Y8525002D01*
X5384800Y8528812D02*
G01*
X5680456Y8528812D01*
X5876543Y8528812D02*
G01*
X6172200Y8528812D01*
X5385815Y8532876D02*
G01*
X5680456Y8532876D01*
X5876543Y8532876D02*
G01*
X6171184Y8532876D01*
X5386831Y8536939D02*
G01*
X5680456Y8536939D01*
X5876543Y8536939D02*
G01*
X6170168Y8536939D01*
X5388102Y8541004D02*
G01*
X5680456Y8541004D01*
X5876543Y8541004D02*
G01*
X6168897Y8541004D01*
X5389118Y8544813D02*
G01*
X5680456Y8544813D01*
X5876543Y8544813D02*
G01*
X6167881Y8544813D01*
X5390134Y8548878D02*
G01*
X5680456Y8548878D01*
X5876543Y8548878D02*
G01*
X6166865Y8548878D01*
X5391404Y8552942D02*
G01*
X5680456Y8552942D01*
X5876543Y8552942D02*
G01*
X6165595Y8552942D01*
X5392674Y8557005D02*
G01*
X5680456Y8557005D01*
X5876543Y8557005D02*
G01*
X6164325Y8557005D01*
X5393943Y8560815D02*
G01*
X5680456Y8560815D01*
X5876543Y8560815D02*
G01*
X6163056Y8560815D01*
X5395213Y8564879D02*
G01*
X5680456Y8564879D01*
X5876543Y8564879D02*
G01*
X6161786Y8564879D01*
X5396738Y8568944D02*
G01*
X5680456Y8568944D01*
X5876543Y8568944D02*
G01*
X6160261Y8568944D01*
X5398261Y8573008D02*
G01*
X5680456Y8573008D01*
X5876543Y8573008D02*
G01*
X6158738Y8573008D01*
X5399531Y8576818D02*
G01*
X5680456Y8576818D01*
X5876543Y8576818D02*
G01*
X6157468Y8576818D01*
X5401309Y8580881D02*
G01*
X5680456Y8580881D01*
X5876543Y8580881D02*
G01*
X6155690Y8580881D01*
X5402579Y8584945D02*
G01*
X5680456Y8584945D01*
X5876543Y8584945D02*
G01*
X6154420Y8584945D01*
X5404358Y8589010D02*
G01*
X5680456Y8589010D01*
X5876543Y8589010D02*
G01*
X6152641Y8589010D01*
X5405881Y8592820D02*
G01*
X5680456Y8592820D01*
X5876543Y8592820D02*
G01*
X6151118Y8592820D01*
X5407913Y8596884D02*
G01*
X5680456Y8596884D01*
X5876543Y8596884D02*
G01*
X6149086Y8596884D01*
X5409438Y8600947D02*
G01*
X5680456Y8600947D01*
X5876543Y8600947D02*
G01*
X6147561Y8600947D01*
X5411470Y8605012D02*
G01*
X5680456Y8605012D01*
X5876543Y8605012D02*
G01*
X6145529Y8605012D01*
X5413247Y8608821D02*
G01*
X5680456Y8608821D01*
X5876543Y8608821D02*
G01*
X6143752Y8608821D01*
X5415279Y8612886D02*
G01*
X5680456Y8612886D01*
X5876543Y8612886D02*
G01*
X6141720Y8612886D01*
X5417311Y8616950D02*
G01*
X5680456Y8616950D01*
X5876543Y8616950D02*
G01*
X6139688Y8616950D01*
X5419090Y8621013D02*
G01*
X5680456Y8621013D01*
X5876543Y8621013D02*
G01*
X6137909Y8621013D01*
X5421375Y8624824D02*
G01*
X5680456Y8624824D01*
X5876543Y8624824D02*
G01*
X6135624Y8624824D01*
X5423408Y8628887D02*
G01*
X5680456Y8628887D01*
X5876543Y8628887D02*
G01*
X6133591Y8628887D01*
X5425693Y8632952D02*
G01*
X5680456Y8632952D01*
X5876543Y8632952D02*
G01*
X6131306Y8632952D01*
X5427979Y8637015D02*
G01*
X5680456Y8637015D01*
X5876543Y8637015D02*
G01*
X6129020Y8637015D01*
X5430265Y8640826D02*
G01*
X5680456Y8640826D01*
X5876543Y8640826D02*
G01*
X6126734Y8640826D01*
X5432806Y8644889D02*
G01*
X5680456Y8644889D01*
X5876543Y8644889D02*
G01*
X6124193Y8644889D01*
X5435091Y8648954D02*
G01*
X5680456Y8648954D01*
X5876543Y8648954D02*
G01*
X6121908Y8648954D01*
X5437631Y8653018D02*
G01*
X5680456Y8653018D01*
X5876543Y8653018D02*
G01*
X6119368Y8653018D01*
X5440172Y8656828D02*
G01*
X5680456Y8656828D01*
X5876543Y8656828D02*
G01*
X6116827Y8656828D01*
X5442965Y8660892D02*
G01*
X5680456Y8660892D01*
X5876543Y8660892D02*
G01*
X6114034Y8660892D01*
X5445506Y8664955D02*
G01*
X5680456Y8664955D01*
X5876543Y8664955D02*
G01*
X6111493Y8664955D01*
X5448300Y8669020D02*
G01*
X5680456Y8669020D01*
X5876543Y8669020D02*
G01*
X6108700Y8669020D01*
X5451347Y8672829D02*
G01*
X5680456Y8672829D01*
X5876543Y8672829D02*
G01*
X6105652Y8672829D01*
X5454141Y8676894D02*
G01*
X5680456Y8676894D01*
X5876543Y8676894D02*
G01*
X6102858Y8676894D01*
X5457190Y8680958D02*
G01*
X5680456Y8680958D01*
X5876543Y8680958D02*
G01*
X6099809Y8680958D01*
X5460238Y8684768D02*
G01*
X5680456Y8684768D01*
X5876543Y8684768D02*
G01*
X6096761Y8684768D01*
X5463540Y8688831D02*
G01*
X5680456Y8688831D01*
X5876543Y8688831D02*
G01*
X6093459Y8688831D01*
X5466588Y8692895D02*
G01*
X5680456Y8692895D01*
X5876543Y8692895D02*
G01*
X6090411Y8692895D01*
X5470143Y8696960D02*
G01*
X5680456Y8696960D01*
X5876543Y8696960D02*
G01*
X6086856Y8696960D01*
X5473445Y8700770D02*
G01*
X5680456Y8700770D01*
X5876543Y8700770D02*
G01*
X6083554Y8700770D01*
X5477002Y8704834D02*
G01*
X5680456Y8704834D01*
X5876543Y8704834D02*
G01*
X6079997Y8704834D01*
X5480558Y8708897D02*
G01*
X6076441Y8708897D01*
X5484368Y8712962D02*
G01*
X6072631Y8712962D01*
X5488177Y8716771D02*
G01*
X6068822Y8716771D01*
X5491988Y8720836D02*
G01*
X6065011Y8720836D01*
X5496052Y8724900D02*
G01*
X6060947Y8724900D01*
X5500115Y8728963D02*
G01*
X6056884Y8728963D01*
X5504434Y8732774D02*
G01*
X6052565Y8732774D01*
X5508752Y8736837D02*
G01*
X6048247Y8736837D01*
X5513324Y8740902D02*
G01*
X6043675Y8740902D01*
X5517895Y8744965D02*
G01*
X6039104Y8744965D01*
X5522722Y8748776D02*
G01*
X6034277Y8748776D01*
X5527802Y8752839D02*
G01*
X6029197Y8752839D01*
X5532881Y8756904D02*
G01*
X6024118Y8756904D01*
X5538215Y8760968D02*
G01*
X6018784Y8760968D01*
X5543550Y8764778D02*
G01*
X6013450Y8764778D01*
X5549138Y8768842D02*
G01*
X6007861Y8768842D01*
X5554979Y8772905D02*
G01*
X6002020Y8772905D01*
X5561075Y8776970D02*
G01*
X5995924Y8776970D01*
X5567679Y8780779D02*
G01*
X5989320Y8780779D01*
X5574284Y8784844D02*
G01*
X5982715Y8784844D01*
X5581141Y8788908D02*
G01*
X5975858Y8788908D01*
X5588254Y8792971D02*
G01*
X5968745Y8792971D01*
X5595874Y8796781D02*
G01*
X5961125Y8796781D01*
X5604002Y8800845D02*
G01*
X5952997Y8800845D01*
X5612384Y8804910D02*
G01*
X5944615Y8804910D01*
X5621527Y8808974D02*
G01*
X5935472Y8808974D01*
X5631179Y8812784D02*
G01*
X5925820Y8812784D01*
X5641593Y8816847D02*
G01*
X5915406Y8816847D01*
X5653024Y8820912D02*
G01*
X5903975Y8820912D01*
X5665724Y8824976D02*
G01*
X5891275Y8824976D01*
X5680202Y8828786D02*
G01*
X5876797Y8828786D01*
X5697220Y8832850D02*
G01*
X5859779Y8832850D01*
X5718809Y8836913D02*
G01*
X5838190Y8836913D01*
X5753861Y8840978D02*
G01*
X5803138Y8840978D01*
X5778500Y8037829D02*
G01*
X5778500Y8157718D01*
X5713475Y8097773D02*
G01*
X5843524Y8097773D01*
X7186675Y9855200D02*
G01*
X6376924Y9855200D01*
X7186675Y9851136D02*
G01*
X6376924Y9851136D01*
X7186675Y9847326D02*
G01*
X6376924Y9847326D01*
X7186675Y9843262D02*
G01*
X6376924Y9843262D01*
X7186422Y9839197D02*
G01*
X6377177Y9839197D01*
X7186422Y9835134D02*
G01*
X6377177Y9835134D01*
X7186168Y9831324D02*
G01*
X6377431Y9831324D01*
X7185913Y9827260D02*
G01*
X6377686Y9827260D01*
X7185659Y9823195D02*
G01*
X6377940Y9823195D01*
X7185406Y9819131D02*
G01*
X6378193Y9819131D01*
X7184897Y9815321D02*
G01*
X6378702Y9815321D01*
X7184390Y9811258D02*
G01*
X6379209Y9811258D01*
X7183881Y9807194D02*
G01*
X6379718Y9807194D01*
X7183374Y9803129D02*
G01*
X6380225Y9803129D01*
X7183120Y9799320D02*
G01*
X6380479Y9799320D01*
X7182358Y9795255D02*
G01*
X6381241Y9795255D01*
X7181850Y9791192D02*
G01*
X6381750Y9791192D01*
X7181088Y9787128D02*
G01*
X6382511Y9787128D01*
X7180579Y9783063D02*
G01*
X6383020Y9783063D01*
X7179818Y9779000D02*
G01*
X6383781Y9779000D01*
X7178802Y9775189D02*
G01*
X6879843Y9775189D01*
X6683756Y9775189D02*
G01*
X6384797Y9775189D01*
X7178040Y9771126D02*
G01*
X6879843Y9771126D01*
X6683756Y9771126D02*
G01*
X6385559Y9771126D01*
X7177277Y9767062D02*
G01*
X6879843Y9767062D01*
X6683756Y9767062D02*
G01*
X6386322Y9767062D01*
X7176515Y9762997D02*
G01*
X6879843Y9762997D01*
X6683756Y9762997D02*
G01*
X6387084Y9762997D01*
X7175500Y9759187D02*
G01*
X6879843Y9759187D01*
X6683756Y9759187D02*
G01*
X6388100Y9759187D01*
X7174484Y9755124D02*
G01*
X6879843Y9755124D01*
X6683756Y9755124D02*
G01*
X6389115Y9755124D01*
X7173468Y9751060D02*
G01*
X6879843Y9751060D01*
X6683756Y9751060D02*
G01*
X6390131Y9751060D01*
X7172197Y9746995D02*
G01*
X6879843Y9746995D01*
X6683756Y9746995D02*
G01*
X6391402Y9746995D01*
X7171181Y9743186D02*
G01*
X6879843Y9743186D01*
X6683756Y9743186D02*
G01*
X6392418Y9743186D01*
X7170165Y9739121D02*
G01*
X6879843Y9739121D01*
X6683756Y9739121D02*
G01*
X6393434Y9739121D01*
X7168895Y9735058D02*
G01*
X6879843Y9735058D01*
X6683756Y9735058D02*
G01*
X6394704Y9735058D01*
X7167625Y9730994D02*
G01*
X6879843Y9730994D01*
X6683756Y9730994D02*
G01*
X6395974Y9730994D01*
X7166356Y9727184D02*
G01*
X6879843Y9727184D01*
X6683756Y9727184D02*
G01*
X6397243Y9727184D01*
X7165086Y9723120D02*
G01*
X6879843Y9723120D01*
X6683756Y9723120D02*
G01*
X6398513Y9723120D01*
X7163561Y9719055D02*
G01*
X6879843Y9719055D01*
X6683756Y9719055D02*
G01*
X6400038Y9719055D01*
X7162038Y9714992D02*
G01*
X6879843Y9714992D01*
X6683756Y9714992D02*
G01*
X6401561Y9714992D01*
X7160768Y9711181D02*
G01*
X6879843Y9711181D01*
X6683756Y9711181D02*
G01*
X6402831Y9711181D01*
X7158990Y9707118D02*
G01*
X6879843Y9707118D01*
X6683756Y9707118D02*
G01*
X6404609Y9707118D01*
X7157720Y9703054D02*
G01*
X6879843Y9703054D01*
X6683756Y9703054D02*
G01*
X6405879Y9703054D01*
X7155941Y9698989D02*
G01*
X6879843Y9698989D01*
X6683756Y9698989D02*
G01*
X6407658Y9698989D01*
X7154418Y9695179D02*
G01*
X6879843Y9695179D01*
X6683756Y9695179D02*
G01*
X6409181Y9695179D01*
X7152386Y9691115D02*
G01*
X6879843Y9691115D01*
X6683756Y9691115D02*
G01*
X6411213Y9691115D01*
X7150861Y9687052D02*
G01*
X6879843Y9687052D01*
X6683756Y9687052D02*
G01*
X6412738Y9687052D01*
X7148829Y9682987D02*
G01*
X6879843Y9682987D01*
X6683756Y9682987D02*
G01*
X6414770Y9682987D01*
X7147052Y9679178D02*
G01*
X6879843Y9679178D01*
X6683756Y9679178D02*
G01*
X6416547Y9679178D01*
X7145020Y9675113D02*
G01*
X6879843Y9675113D01*
X6683756Y9675113D02*
G01*
X6418579Y9675113D01*
X7142988Y9671050D02*
G01*
X6879843Y9671050D01*
X6683756Y9671050D02*
G01*
X6420611Y9671050D01*
X7141209Y9666986D02*
G01*
X6879843Y9666986D01*
X6683756Y9666986D02*
G01*
X6422390Y9666986D01*
X7138924Y9663176D02*
G01*
X6879843Y9663176D01*
X6683756Y9663176D02*
G01*
X6424675Y9663176D01*
X7136891Y9659112D02*
G01*
X6879843Y9659112D01*
X6683756Y9659112D02*
G01*
X6426708Y9659112D01*
X7134606Y9655047D02*
G01*
X6879843Y9655047D01*
X6683756Y9655047D02*
G01*
X6428993Y9655047D01*
X7132320Y9650984D02*
G01*
X6879843Y9650984D01*
X6683756Y9650984D02*
G01*
X6431279Y9650984D01*
X7130034Y9647174D02*
G01*
X6879843Y9647174D01*
X6683756Y9647174D02*
G01*
X6433565Y9647174D01*
X7127493Y9643110D02*
G01*
X6879843Y9643110D01*
X6683756Y9643110D02*
G01*
X6436106Y9643110D01*
X7125208Y9639045D02*
G01*
X6879843Y9639045D01*
X6683756Y9639045D02*
G01*
X6438391Y9639045D01*
X7122668Y9634981D02*
G01*
X6879843Y9634981D01*
X6683756Y9634981D02*
G01*
X6440931Y9634981D01*
X7120127Y9631171D02*
G01*
X6879843Y9631171D01*
X6683756Y9631171D02*
G01*
X6443472Y9631171D01*
X7117334Y9627108D02*
G01*
X6879843Y9627108D01*
X6683756Y9627108D02*
G01*
X6446265Y9627108D01*
X7114793Y9623044D02*
G01*
X6879843Y9623044D01*
X6683756Y9623044D02*
G01*
X6448806Y9623044D01*
X7112000Y9618979D02*
G01*
X6879843Y9618979D01*
X6683756Y9618979D02*
G01*
X6451600Y9618979D01*
X7108952Y9615170D02*
G01*
X6879843Y9615170D01*
X6683756Y9615170D02*
G01*
X6454647Y9615170D01*
X7106158Y9611105D02*
G01*
X6879843Y9611105D01*
X6683756Y9611105D02*
G01*
X6457441Y9611105D01*
X7103109Y9607042D02*
G01*
X6879843Y9607042D01*
X6683756Y9607042D02*
G01*
X6460490Y9607042D01*
X7100061Y9603231D02*
G01*
X6879843Y9603231D01*
X6683756Y9603231D02*
G01*
X6463538Y9603231D01*
X7096759Y9599168D02*
G01*
X6879843Y9599168D01*
X6683756Y9599168D02*
G01*
X6466840Y9599168D01*
X7093711Y9595104D02*
G01*
X6879843Y9595104D01*
X6683756Y9595104D02*
G01*
X6469888Y9595104D01*
X7090156Y9591039D02*
G01*
X6879843Y9591039D01*
X6683756Y9591039D02*
G01*
X6473443Y9591039D01*
X7086854Y9587229D02*
G01*
X6879843Y9587229D01*
X6683756Y9587229D02*
G01*
X6476745Y9587229D01*
X7083297Y9583165D02*
G01*
X6879843Y9583165D01*
X6683756Y9583165D02*
G01*
X6480302Y9583165D01*
X7079741Y9579102D02*
G01*
X6483858Y9579102D01*
X7075931Y9575037D02*
G01*
X6487668Y9575037D01*
X7072122Y9571228D02*
G01*
X6491477Y9571228D01*
X7068311Y9567163D02*
G01*
X6495288Y9567163D01*
X7064247Y9563100D02*
G01*
X6499352Y9563100D01*
X7060184Y9559036D02*
G01*
X6503415Y9559036D01*
X7055865Y9555226D02*
G01*
X6507734Y9555226D01*
X7051547Y9551162D02*
G01*
X6512052Y9551162D01*
X7046975Y9547097D02*
G01*
X6516624Y9547097D01*
X7042404Y9543034D02*
G01*
X6521195Y9543034D01*
X7037577Y9539224D02*
G01*
X6526022Y9539224D01*
X7032497Y9535160D02*
G01*
X6531102Y9535160D01*
X7027418Y9531095D02*
G01*
X6536181Y9531095D01*
X7022084Y9527031D02*
G01*
X6541515Y9527031D01*
X7016750Y9523221D02*
G01*
X6546850Y9523221D01*
X7011161Y9519158D02*
G01*
X6552438Y9519158D01*
X7005320Y9515094D02*
G01*
X6558279Y9515094D01*
X6999224Y9511029D02*
G01*
X6564375Y9511029D01*
X6992620Y9507220D02*
G01*
X6570979Y9507220D01*
X6986015Y9503155D02*
G01*
X6577584Y9503155D01*
X6979158Y9499092D02*
G01*
X6584441Y9499092D01*
X6972045Y9495028D02*
G01*
X6591554Y9495028D01*
X6964425Y9491218D02*
G01*
X6599174Y9491218D01*
X6956297Y9487154D02*
G01*
X6607302Y9487154D01*
X6947915Y9483089D02*
G01*
X6615684Y9483089D01*
X6938772Y9479026D02*
G01*
X6624827Y9479026D01*
X6929120Y9475215D02*
G01*
X6634479Y9475215D01*
X6918706Y9471152D02*
G01*
X6644893Y9471152D01*
X6907275Y9467087D02*
G01*
X6656324Y9467087D01*
X6894575Y9463024D02*
G01*
X6669024Y9463024D01*
X6880097Y9459213D02*
G01*
X6683502Y9459213D01*
X6863079Y9455150D02*
G01*
X6700520Y9455150D01*
X6841490Y9451086D02*
G01*
X6722109Y9451086D01*
X6806438Y9447021D02*
G01*
X6757161Y9447021D01*
X6781800Y10250170D02*
G01*
X6781800Y10130281D01*
X6846824Y10190226D02*
G01*
X6716775Y10190226D01*
X4280344Y6790181D02*
G01*
X3568382Y6790181D01*
X3568382Y7002018D01*
X4280344Y7002018D01*
X4280344Y6790181D01*
X6413944Y9076181D02*
G01*
X5701982Y9076181D01*
X5701982Y9288018D01*
X6413944Y9288018D01*
X6413944Y9076181D01*
X5075681Y6247955D02*
G01*
X5075681Y6959917D01*
X5287518Y6959917D01*
X5287518Y6247955D01*
X5075681Y6247955D01*
X6422643Y5254244D02*
G01*
X6422643Y5287263D01*
X7064756Y5287263D01*
X7064756Y5254244D01*
X6422643Y5058155D02*
G01*
X6422643Y5025136D01*
X7064756Y5025136D01*
X7064756Y5058155D01*
X6526275Y10617962D02*
G01*
X6663181Y10617962D01*
X6663181Y11657837D01*
X6189218Y11657837D01*
X6189218Y10617962D01*
X6326124Y10617962D01*
X6946138Y10617962D02*
G01*
X6946138Y11657837D01*
X5906261Y11657837D01*
X5906261Y10617962D01*
X6946138Y10617962D01*
X3887724Y6565137D02*
G01*
X3750818Y6565137D01*
X3750818Y5525262D01*
X4224781Y5525262D01*
X4224781Y6565137D01*
X4087875Y6565137D01*
X3467861Y6565137D02*
G01*
X3467861Y5525262D01*
X4507738Y5525262D01*
X4507738Y6565137D01*
X3467861Y6565137D01*
D10*
X1016000Y9207500D02*
G01*
X2032000Y9207500D01*
X2032000Y8953500D01*
X1016000Y8953500D01*
X1016000Y9207500D01*
X2836199Y13319602D02*
G01*
X2836199Y8219597D01*
X4936200Y8219600D01*
X4936200Y13319602D01*
X2836199Y13319599D02*
G01*
X4936200Y13319599D01*
D32*
X1562100Y11021060D02*
G01*
X1562100Y11071860D01*
X1460500Y11021060D02*
G01*
X1460500Y11071860D01*
X1155954Y10106660D02*
G01*
X1155954Y11407139D01*
X1155700Y11407139D02*
G01*
X1866900Y11407139D01*
X1866900Y11407139D02*
G01*
X1866900Y10106660D01*
X1866900Y10106660D02*
G01*
X1155700Y10106660D01*
D30*
X7228395Y7529703D02*
G01*
X7228395Y7410069D01*
X6716331Y7410069D01*
X6716331Y8029575D01*
X6716331Y7860156D01*
X7228395Y7860156D01*
X7228395Y8472043D01*
X6716331Y8472043D01*
X6716331Y8302625D01*
X6716331Y8922130D01*
X7228395Y8922130D01*
X7228395Y8802496D01*
X7228395Y7802498D02*
G01*
X7228395Y8529701D01*
D33*
X1577022Y7056564D02*
G01*
X1577022Y8056562D01*
X437070Y7056564D02*
G01*
X437070Y8056562D01*
X446976Y8056562D02*
G01*
X1577098Y8056498D01*
X446976Y7056564D02*
G01*
X1577098Y7056501D01*
D34*
X927036Y7516558D02*
G01*
X927036Y7596568D01*
X887158Y7556436D02*
G01*
X967168Y7556436D01*
D30*
X5393943Y9889744D02*
G01*
X5393943Y9922763D01*
X6036056Y9922763D01*
X6036056Y9889744D01*
X5393943Y9693655D02*
G01*
X5393943Y9660636D01*
X6036056Y9660636D01*
X6036056Y9693655D01*
X5393943Y10321544D02*
G01*
X5393943Y10354563D01*
X6036056Y10354563D01*
X6036056Y10321544D01*
X5393943Y10125455D02*
G01*
X5393943Y10092436D01*
X6036056Y10092436D01*
X6036056Y10125455D01*
G75*
G01*
X3781001Y7705451D02*
G02*
X4104234Y7689761I156000J-123550D01*
G75*
G01*
X3781001Y7458349D02*
G03*
X4104234Y7474039I156000J123550D01*
G75*
G01*
X3832903Y7689901D02*
G02*
X4041112Y7689883I104095J-108001D01*
G75*
G01*
X3832903Y7473899D02*
G03*
X4041112Y7473917I104095J108001D01*
G75*
G01*
X5680499Y6745249D02*
G02*
X5680359Y7224679I97997J239744D01*
G75*
G01*
X5876501Y6745249D02*
G03*
X5876641Y7224679I-97997J239744D01*
G75*
G01*
X5680499Y7224738D02*
G02*
X5876641Y7224679I97999J-239743D01*
G75*
G01*
X3363951Y4981999D02*
G02*
X2884521Y4981859I-239744J97997D01*
G75*
G01*
X3363951Y5178001D02*
G03*
X2884521Y5178141I-239744J-97997D01*
G75*
G01*
X2884462Y4981999D02*
G02*
X2884521Y5178141I239743J97999D01*
G75*
G01*
X4550199Y4764049D02*
G02*
X4550059Y5243479I97997J239744D01*
G75*
G01*
X4746201Y4764049D02*
G03*
X4746341Y5243479I-97997J239744D01*
G75*
G01*
X4550199Y5243538D02*
G02*
X4746341Y5243479I97999J-239743D01*
G75*
G01*
X1028700Y5750507D02*
G03*
X1027702Y5750509I542J408998D01*
G75*
G01*
X2082800Y5615993D02*
G03*
X2083798Y5615991I-542J-408998D01*
G75*
G01*
X5778500Y8841793D02*
G03*
X5779498Y8841791I-542J-408998D01*
G75*
G01*
X6781800Y9446207D02*
G03*
X6780802Y9446209I542J408998D01*
G75*
G01*
X6526200Y10617901D02*
G03*
X6326200Y10617901I-100000J0D01*
G75*
G01*
X3887800Y6565199D02*
G03*
X4087800Y6565199I100000J0D01*
D32*
G75*
G01*
X1458397Y11017029D02*
G03*
X1251171Y10703997I52902J-260128D01*
G75*
G01*
X1771429Y10708127D02*
G03*
X1560073Y11017029I-260127J48774D01*
G75*
G01*
X1799816Y10685673D02*
G03*
X1582527Y11045416I-288515J71227D01*
G75*
G01*
X1440073Y11044382D02*
G03*
X1223818Y10685673I71227J-287482D01*
G75*
G01*
X1511300Y10492643D02*
G03*
X1775557Y10756900I-1J264258D01*
G75*
G01*
X1247043Y10756900D02*
G03*
X1511300Y10492643I264258J1D01*
G75*
G01*
X1511300Y10462191D02*
G03*
X1806009Y10756900I-1J294710D01*
G75*
G01*
X1216591Y10756900D02*
G03*
X1511300Y10462191I294710J1D01*
G75*
G01*
X1832331Y10705028D02*
G03*
X1563172Y11077931I-321033J51870D01*
G75*
G01*
X1459428Y11077931D02*
G03*
X1190269Y10705028I51874J-321033D01*
G75*
G01*
X1511300Y10431739D02*
G03*
X1836461Y10756900I0J325161D01*
G75*
G01*
X1186139Y10756900D02*
G03*
X1511300Y10431739I325161J0D01*
D10*
G75*
G01
X1820977Y12573000D02*
G03X1820977Y12573000I-549986J0D01*
G75*
G01
X6964477Y12573000D02*
G03X6964477Y12573000I-549986J0D01*
D35*
G75*
G01
X1777238Y10756900D02*
G03X1777238Y10756900I-265938J0D01*
D10*
G75*
G01
X1254608Y7556500D02*
G03X1254608Y7556500I-317500J0D01*
G75*
G01
X1292098Y7556500D02*
G03X1292098Y7556500I-354990J0D01*
M02*
